G75*
G70*
%OFA0B0*%
%FSLAX24Y24*%
%IPPOS*%
%LPD*%
%AMOC8*
5,1,8,0,0,1.08239X$1,22.5*
%
%ADD10R,0.1142X0.0591*%
%ADD11R,0.0591X0.1142*%
%ADD12OC8,0.0600*%
%ADD13C,0.0500*%
%ADD14C,0.0400*%
%ADD15R,0.0357X0.0357*%
%ADD16C,0.0660*%
%ADD17C,0.0100*%
%ADD18C,0.0650*%
D10*
X003095Y005006D03*
X004595Y005006D03*
X006095Y005006D03*
X007595Y005006D03*
X007595Y006187D03*
X006095Y006187D03*
X004595Y006187D03*
X003095Y006187D03*
D11*
X012505Y006596D03*
X013686Y006596D03*
X013686Y005096D03*
X012505Y005096D03*
X012505Y003596D03*
X013686Y003596D03*
X013686Y002096D03*
X012505Y002096D03*
X012505Y008096D03*
X013686Y008096D03*
D12*
X019595Y007096D03*
X019595Y006096D03*
X019595Y005096D03*
X019595Y004096D03*
X019595Y003096D03*
X001595Y003096D03*
X001595Y002096D03*
X001595Y001096D03*
X001595Y004096D03*
X001595Y005096D03*
X001595Y006096D03*
X001595Y007096D03*
X001595Y008096D03*
X001595Y009096D03*
D13*
X003095Y007096D02*
X003595Y007409D01*
X003095Y007096D02*
X003095Y006187D01*
X004595Y006187D02*
X004595Y006909D01*
X006095Y006909D02*
X006095Y006187D01*
X007595Y006187D02*
X007595Y006909D01*
X007595Y005006D02*
X007595Y004596D01*
X006095Y004596D02*
X006095Y005006D01*
X004595Y005006D02*
X004595Y004596D01*
X003095Y004596D02*
X003095Y005006D01*
X012095Y005096D02*
X012505Y005096D01*
X014158Y005081D02*
X019095Y005081D01*
X019095Y004583D02*
X014158Y004583D01*
X014158Y004084D02*
X019095Y004084D01*
X019095Y003586D02*
X014158Y003586D01*
X014158Y003087D02*
X019095Y003087D01*
X019095Y002589D02*
X014158Y002589D01*
X014158Y002090D02*
X018639Y002090D01*
X018594Y002011D02*
X018520Y001738D01*
X018520Y001596D01*
X014158Y001596D01*
X014158Y008596D01*
X018520Y008596D01*
X018520Y008455D01*
X018594Y008181D01*
X018735Y007936D01*
X018935Y007736D01*
X019095Y007644D01*
X019095Y002548D01*
X018935Y002456D01*
X018735Y002256D01*
X018594Y002011D01*
X012505Y002096D02*
X012095Y002096D01*
X012095Y003596D02*
X012505Y003596D01*
X014158Y005580D02*
X019095Y005580D01*
X019095Y006078D02*
X014158Y006078D01*
X014158Y006577D02*
X019095Y006577D01*
X019095Y007075D02*
X014158Y007075D01*
X014158Y007574D02*
X019095Y007574D01*
X018657Y008072D02*
X014158Y008072D01*
X014158Y008571D02*
X018520Y008571D01*
X012505Y008096D02*
X012095Y008096D01*
X012095Y006596D02*
X012505Y006596D01*
D14*
X013686Y006596D02*
X015095Y006596D01*
X015095Y005096D02*
X013686Y005096D01*
X013686Y003596D02*
X015095Y003596D01*
X015095Y002096D02*
X013686Y002096D01*
X013686Y008096D02*
X015095Y008096D01*
D15*
X015095Y008096D03*
X015095Y007596D03*
X015095Y007096D03*
X015095Y006596D03*
X015095Y006096D03*
X015095Y005596D03*
X015095Y005096D03*
X015095Y004596D03*
X015095Y004096D03*
X015095Y003596D03*
X015095Y003096D03*
X015095Y002596D03*
X015095Y002096D03*
X008095Y002284D03*
X007595Y002284D03*
X007595Y002784D03*
X008095Y002784D03*
X008095Y003284D03*
X007595Y003284D03*
X007095Y003284D03*
X006595Y003284D03*
X006095Y003284D03*
X005595Y003284D03*
X005095Y003284D03*
X004595Y003284D03*
X004095Y003284D03*
X004095Y003784D03*
X004595Y003784D03*
X005095Y003784D03*
X005595Y003784D03*
X006095Y003784D03*
X006595Y003784D03*
X007095Y003784D03*
X007595Y003784D03*
X008095Y003784D03*
X008095Y001784D03*
X007595Y001784D03*
X007595Y001284D03*
X008095Y001284D03*
X007595Y006909D03*
X007095Y006909D03*
X006595Y006909D03*
X006095Y006909D03*
X005595Y006909D03*
X005095Y006909D03*
X004595Y006909D03*
X004095Y006909D03*
X003595Y006909D03*
X003595Y007409D03*
X004095Y007409D03*
X004595Y007409D03*
X005095Y007409D03*
X005595Y007409D03*
X006095Y007409D03*
X006595Y007409D03*
X007095Y007409D03*
X007595Y007409D03*
D16*
X002595Y007096D02*
X001595Y007096D01*
X001595Y008096D02*
X002595Y008096D01*
X002595Y009096D02*
X001595Y009096D01*
X001595Y003096D02*
X002595Y003096D01*
X002595Y002096D02*
X001595Y002096D01*
X001595Y001096D02*
X002595Y001096D01*
X019095Y003096D02*
X019595Y003096D01*
X019595Y004096D02*
X019095Y004096D01*
X019095Y005096D02*
X019595Y005096D01*
X019595Y006096D02*
X019095Y006096D01*
X019095Y007096D02*
X019595Y007096D01*
D17*
X002095Y003875D02*
X002095Y000596D01*
X012095Y000596D01*
X012033Y009096D01*
X008595Y009096D01*
X008595Y004596D01*
X002095Y004596D01*
X002095Y004317D01*
X002105Y004307D01*
X002105Y003885D01*
X002095Y003875D01*
X002095Y003839D02*
X012071Y003839D01*
X012072Y003741D02*
X002095Y003741D01*
X002095Y003642D02*
X012073Y003642D01*
X012095Y003596D02*
X010555Y003331D01*
X010595Y005096D01*
X012095Y005096D01*
X012062Y005120D02*
X008595Y005120D01*
X008595Y005218D02*
X012061Y005218D01*
X012060Y005317D02*
X008595Y005317D01*
X008595Y005415D02*
X012060Y005415D01*
X012059Y005514D02*
X008595Y005514D01*
X008595Y005612D02*
X012058Y005612D01*
X012057Y005711D02*
X008595Y005711D01*
X008595Y005809D02*
X012057Y005809D01*
X012056Y005908D02*
X008595Y005908D01*
X008595Y006006D02*
X012055Y006006D01*
X012055Y006105D02*
X008595Y006105D01*
X008595Y006203D02*
X012054Y006203D01*
X012053Y006302D02*
X008595Y006302D01*
X008595Y006400D02*
X012052Y006400D01*
X012052Y006499D02*
X008595Y006499D01*
X008595Y006597D02*
X012051Y006597D01*
X012095Y006596D02*
X010595Y006596D01*
X010595Y005096D01*
X012063Y005021D02*
X008595Y005021D01*
X008595Y004923D02*
X012063Y004923D01*
X012064Y004824D02*
X008595Y004824D01*
X008595Y004726D02*
X012065Y004726D01*
X012065Y004627D02*
X008595Y004627D01*
X008095Y002784D02*
X010555Y003331D01*
X012075Y003347D02*
X002095Y003347D01*
X002095Y003445D02*
X012074Y003445D01*
X012073Y003544D02*
X002095Y003544D01*
X002095Y003248D02*
X012076Y003248D01*
X012076Y003150D02*
X002095Y003150D01*
X002095Y003051D02*
X012077Y003051D01*
X012078Y002953D02*
X002095Y002953D01*
X002095Y002854D02*
X012078Y002854D01*
X012079Y002756D02*
X002095Y002756D01*
X002095Y002657D02*
X012080Y002657D01*
X012081Y002559D02*
X002095Y002559D01*
X002095Y002460D02*
X012081Y002460D01*
X012082Y002362D02*
X002095Y002362D01*
X002095Y002263D02*
X012083Y002263D01*
X012084Y002165D02*
X002095Y002165D01*
X002095Y002066D02*
X004832Y002066D01*
X004792Y002049D02*
X004642Y001899D01*
X004560Y001702D01*
X004560Y001490D01*
X004642Y001293D01*
X004792Y001143D01*
X004989Y001061D01*
X005201Y001061D01*
X005398Y001143D01*
X005548Y001293D01*
X005630Y001490D01*
X005630Y001702D01*
X005548Y001899D01*
X005398Y002049D01*
X005201Y002131D01*
X004989Y002131D01*
X004792Y002049D01*
X004710Y001968D02*
X002095Y001968D01*
X002095Y001869D02*
X004629Y001869D01*
X004588Y001771D02*
X002095Y001771D01*
X002095Y001672D02*
X004560Y001672D01*
X004560Y001574D02*
X002095Y001574D01*
X002095Y001475D02*
X004566Y001475D01*
X004607Y001377D02*
X002095Y001377D01*
X002095Y001278D02*
X004657Y001278D01*
X004755Y001180D02*
X002095Y001180D01*
X002095Y001081D02*
X004941Y001081D01*
X005249Y001081D02*
X012092Y001081D01*
X012092Y000983D02*
X002095Y000983D01*
X002095Y000884D02*
X012093Y000884D01*
X012094Y000786D02*
X002095Y000786D01*
X002095Y000687D02*
X012094Y000687D01*
X012091Y001180D02*
X005435Y001180D01*
X005533Y001278D02*
X012090Y001278D01*
X012089Y001377D02*
X005583Y001377D01*
X005624Y001475D02*
X012089Y001475D01*
X012088Y001574D02*
X005630Y001574D01*
X005630Y001672D02*
X012087Y001672D01*
X012086Y001771D02*
X005602Y001771D01*
X005561Y001869D02*
X012086Y001869D01*
X012085Y001968D02*
X005480Y001968D01*
X005358Y002066D02*
X012084Y002066D01*
X012095Y002096D02*
X012095Y003596D01*
X012071Y003938D02*
X002105Y003938D01*
X002105Y004036D02*
X012070Y004036D01*
X012069Y004135D02*
X002105Y004135D01*
X002105Y004233D02*
X012068Y004233D01*
X012068Y004332D02*
X002095Y004332D01*
X002095Y004430D02*
X012067Y004430D01*
X012066Y004529D02*
X002095Y004529D01*
X002226Y006596D02*
X002190Y006681D01*
X002117Y006754D01*
X002033Y006789D01*
X002033Y009596D01*
X008220Y009596D01*
X008220Y006596D01*
X002226Y006596D01*
X002225Y006597D02*
X008220Y006597D01*
X008220Y006696D02*
X002176Y006696D01*
X002033Y006794D02*
X008220Y006794D01*
X008220Y006893D02*
X002033Y006893D01*
X002033Y006991D02*
X008220Y006991D01*
X008220Y007090D02*
X002033Y007090D01*
X002033Y007188D02*
X008220Y007188D01*
X008220Y007287D02*
X002033Y007287D01*
X002033Y007385D02*
X008220Y007385D01*
X008220Y007484D02*
X002033Y007484D01*
X002033Y007582D02*
X008220Y007582D01*
X008220Y007681D02*
X002033Y007681D01*
X002033Y007779D02*
X008220Y007779D01*
X008220Y007878D02*
X002033Y007878D01*
X002033Y007976D02*
X008220Y007976D01*
X008220Y008075D02*
X005234Y008075D01*
X005201Y008061D02*
X005398Y008143D01*
X005548Y008293D01*
X005630Y008490D01*
X005630Y008702D01*
X005548Y008899D01*
X005398Y009049D01*
X005201Y009131D01*
X004989Y009131D01*
X004792Y009049D01*
X004642Y008899D01*
X004560Y008702D01*
X004560Y008490D01*
X004642Y008293D01*
X004792Y008143D01*
X004989Y008061D01*
X005201Y008061D01*
X004957Y008075D02*
X002033Y008075D01*
X002033Y008173D02*
X004762Y008173D01*
X004663Y008272D02*
X002033Y008272D01*
X002033Y008370D02*
X004610Y008370D01*
X004569Y008469D02*
X002033Y008469D01*
X002033Y008567D02*
X004560Y008567D01*
X004560Y008666D02*
X002033Y008666D01*
X002033Y008764D02*
X004586Y008764D01*
X004627Y008863D02*
X002033Y008863D01*
X002033Y008961D02*
X004704Y008961D01*
X004817Y009060D02*
X002033Y009060D01*
X002033Y009158D02*
X008220Y009158D01*
X008220Y009060D02*
X005374Y009060D01*
X005486Y008961D02*
X008220Y008961D01*
X008220Y008863D02*
X005564Y008863D01*
X005604Y008764D02*
X008220Y008764D01*
X008220Y008666D02*
X005630Y008666D01*
X005630Y008567D02*
X008220Y008567D01*
X008220Y008469D02*
X005621Y008469D01*
X005580Y008370D02*
X008220Y008370D01*
X008220Y008272D02*
X005527Y008272D01*
X005428Y008173D02*
X008220Y008173D01*
X008595Y008173D02*
X012039Y008173D01*
X012040Y008075D02*
X008595Y008075D01*
X008595Y007976D02*
X012041Y007976D01*
X012042Y007878D02*
X008595Y007878D01*
X008595Y007779D02*
X012042Y007779D01*
X012043Y007681D02*
X008595Y007681D01*
X008595Y007582D02*
X012044Y007582D01*
X012044Y007484D02*
X008595Y007484D01*
X008595Y007385D02*
X012045Y007385D01*
X012046Y007287D02*
X008595Y007287D01*
X008595Y007188D02*
X012047Y007188D01*
X012047Y007090D02*
X008595Y007090D01*
X008595Y006991D02*
X012048Y006991D01*
X012049Y006893D02*
X008595Y006893D01*
X008595Y006794D02*
X012050Y006794D01*
X012050Y006696D02*
X008595Y006696D01*
X010595Y006596D02*
X010595Y008096D01*
X012505Y008096D01*
X012039Y008272D02*
X008595Y008272D01*
X008595Y008370D02*
X012038Y008370D01*
X012037Y008469D02*
X008595Y008469D01*
X008595Y008567D02*
X012036Y008567D01*
X012036Y008666D02*
X008595Y008666D01*
X008595Y008764D02*
X012035Y008764D01*
X012034Y008863D02*
X008595Y008863D01*
X008595Y008961D02*
X012034Y008961D01*
X012033Y009060D02*
X008595Y009060D01*
X008220Y009257D02*
X002033Y009257D01*
X002033Y009355D02*
X008220Y009355D01*
X008220Y009454D02*
X002033Y009454D01*
X002033Y009552D02*
X008220Y009552D01*
D18*
X005095Y008596D03*
X019595Y008596D03*
X019595Y001596D03*
X005095Y001596D03*
M02*
