G75*
G70*
%OFA0B0*%
%FSLAX24Y24*%
%IPPOS*%
%LPD*%
%AMOC8*
5,1,8,0,0,1.08239X$1,22.5*
%
%ADD10C,0.0217*%
%ADD11R,0.0315X0.0094*%
%ADD12R,0.0246X0.0128*%
%ADD13R,0.0094X0.0276*%
%ADD14R,0.0394X0.0195*%
%ADD15R,0.0322X0.0195*%
%ADD16R,0.0394X0.0139*%
%ADD17R,0.0320X0.0139*%
%ADD18R,0.0394X0.0140*%
%ADD19R,0.0120X0.0157*%
%ADD20R,0.0413X0.0425*%
%ADD21R,0.2540X0.7600*%
%ADD22R,0.0425X0.0413*%
%ADD23R,0.0433X0.0394*%
%ADD24R,0.0394X0.0433*%
D10*
X004987Y001596D02*
X004989Y001616D01*
X004995Y001636D01*
X005004Y001654D01*
X005017Y001671D01*
X005032Y001684D01*
X005050Y001694D01*
X005070Y001701D01*
X005090Y001704D01*
X005110Y001703D01*
X005130Y001698D01*
X005149Y001690D01*
X005166Y001678D01*
X005180Y001663D01*
X005191Y001645D01*
X005199Y001626D01*
X005203Y001606D01*
X005203Y001586D01*
X005199Y001566D01*
X005191Y001547D01*
X005180Y001529D01*
X005166Y001514D01*
X005149Y001502D01*
X005130Y001494D01*
X005110Y001489D01*
X005090Y001488D01*
X005070Y001491D01*
X005050Y001498D01*
X005032Y001508D01*
X005017Y001521D01*
X005004Y001538D01*
X004995Y001556D01*
X004989Y001576D01*
X004987Y001596D01*
X004987Y008596D02*
X004989Y008616D01*
X004995Y008636D01*
X005004Y008654D01*
X005017Y008671D01*
X005032Y008684D01*
X005050Y008694D01*
X005070Y008701D01*
X005090Y008704D01*
X005110Y008703D01*
X005130Y008698D01*
X005149Y008690D01*
X005166Y008678D01*
X005180Y008663D01*
X005191Y008645D01*
X005199Y008626D01*
X005203Y008606D01*
X005203Y008586D01*
X005199Y008566D01*
X005191Y008547D01*
X005180Y008529D01*
X005166Y008514D01*
X005149Y008502D01*
X005130Y008494D01*
X005110Y008489D01*
X005090Y008488D01*
X005070Y008491D01*
X005050Y008498D01*
X005032Y008508D01*
X005017Y008521D01*
X005004Y008538D01*
X004995Y008556D01*
X004989Y008576D01*
X004987Y008596D01*
X019487Y008596D02*
X019489Y008616D01*
X019495Y008636D01*
X019504Y008654D01*
X019517Y008671D01*
X019532Y008684D01*
X019550Y008694D01*
X019570Y008701D01*
X019590Y008704D01*
X019610Y008703D01*
X019630Y008698D01*
X019649Y008690D01*
X019666Y008678D01*
X019680Y008663D01*
X019691Y008645D01*
X019699Y008626D01*
X019703Y008606D01*
X019703Y008586D01*
X019699Y008566D01*
X019691Y008547D01*
X019680Y008529D01*
X019666Y008514D01*
X019649Y008502D01*
X019630Y008494D01*
X019610Y008489D01*
X019590Y008488D01*
X019570Y008491D01*
X019550Y008498D01*
X019532Y008508D01*
X019517Y008521D01*
X019504Y008538D01*
X019495Y008556D01*
X019489Y008576D01*
X019487Y008596D01*
X019487Y001596D02*
X019489Y001616D01*
X019495Y001636D01*
X019504Y001654D01*
X019517Y001671D01*
X019532Y001684D01*
X019550Y001694D01*
X019570Y001701D01*
X019590Y001704D01*
X019610Y001703D01*
X019630Y001698D01*
X019649Y001690D01*
X019666Y001678D01*
X019680Y001663D01*
X019691Y001645D01*
X019699Y001626D01*
X019703Y001606D01*
X019703Y001586D01*
X019699Y001566D01*
X019691Y001547D01*
X019680Y001529D01*
X019666Y001514D01*
X019649Y001502D01*
X019630Y001494D01*
X019610Y001489D01*
X019590Y001488D01*
X019570Y001491D01*
X019550Y001498D01*
X019532Y001508D01*
X019517Y001521D01*
X019504Y001538D01*
X019495Y001556D01*
X019489Y001576D01*
X019487Y001596D01*
D11*
X004170Y004733D03*
X004170Y004930D03*
X004170Y005096D03*
X004170Y005322D03*
D12*
X004170Y004531D03*
D13*
X004573Y004446D03*
X004770Y004446D03*
X004632Y005746D03*
X004436Y005746D03*
D14*
X005095Y004477D03*
X005568Y004477D03*
D15*
X005997Y004477D03*
X005997Y005718D03*
D16*
X005568Y005096D03*
X005095Y005096D03*
D17*
X005997Y005096D03*
D18*
X005568Y005718D03*
X005095Y005718D03*
D19*
X004135Y005658D03*
D20*
X003876Y006409D03*
X004565Y006409D03*
D21*
X010040Y005096D03*
X017150Y005096D03*
D22*
X003533Y004753D03*
X003033Y004753D03*
X003033Y004064D03*
X003533Y004064D03*
D23*
X002470Y004074D03*
X002470Y004743D03*
D24*
X002698Y005596D03*
X003367Y005596D03*
M02*
