G75*
G70*
%OFA0B0*%
%FSLAX24Y24*%
%IPPOS*%
%LPD*%
%AMOC8*
5,1,8,0,0,1.08239X$1,22.5*
%
%ADD10C,0.0030*%
D10*
X004912Y004036D02*
X004973Y003974D01*
X004912Y004036D02*
X004912Y004159D01*
X004850Y004097D01*
X004788Y004097D01*
X004726Y004159D01*
X004726Y004282D01*
X004912Y004282D02*
X004912Y004159D01*
X005095Y004159D02*
X005157Y004097D01*
X005280Y004097D01*
X005342Y004159D01*
X005095Y004406D01*
X005095Y004159D01*
X005342Y004159D02*
X005342Y004406D01*
X005280Y004468D01*
X005157Y004468D01*
X005095Y004406D01*
X005587Y004468D02*
X005710Y004344D01*
X005587Y004468D02*
X005587Y004097D01*
X005710Y004097D02*
X005463Y004097D01*
X014161Y004908D02*
X014223Y004846D01*
X014470Y005093D01*
X014531Y005031D01*
X014531Y004908D01*
X014470Y004846D01*
X014223Y004846D01*
X014161Y004908D02*
X014161Y005031D01*
X014223Y005093D01*
X014470Y005093D01*
X014531Y005214D02*
X014531Y005461D01*
X014531Y005338D02*
X014161Y005338D01*
X014284Y005461D01*
X014655Y004724D02*
X014593Y004663D01*
X014470Y004663D01*
X014531Y004601D01*
X014531Y004539D01*
X014470Y004477D01*
X014346Y004477D01*
X014346Y004663D02*
X014470Y004663D01*
M02*
