G75*
G70*
%OFA0B0*%
%FSLAX24Y24*%
%IPPOS*%
%LPD*%
%AMOC8*
5,1,8,0,0,1.08239X$1,22.5*
%
%ADD10R,0.0354X0.0157*%
%ADD11R,0.0463X0.0157*%
%ADD12R,0.0138X0.0315*%
%ADD13R,0.1260X0.0262*%
%ADD14R,0.1446X0.0209*%
%ADD15R,0.0207X0.0276*%
%ADD16R,0.0493X0.0505*%
%ADD17R,0.2620X0.7680*%
%ADD18R,0.0505X0.0493*%
%ADD19R,0.0513X0.0474*%
%ADD20R,0.0474X0.0513*%
%ADD21OC8,0.0680*%
%ADD22R,0.0437X0.0437*%
%ADD23C,0.0730*%
D10*
X004091Y004732D03*
X004091Y004929D03*
X004091Y005126D03*
X004091Y005322D03*
D11*
X004145Y004535D03*
D12*
X004573Y004387D03*
X004770Y004387D03*
X004632Y005805D03*
X004436Y005805D03*
D13*
X005568Y005607D03*
X005568Y004585D03*
D14*
X005449Y005096D03*
D15*
X004204Y005716D03*
D16*
X003876Y006409D03*
X004565Y006409D03*
D17*
X010040Y005096D03*
X017150Y005096D03*
D18*
X003533Y004753D03*
X003033Y004753D03*
X003033Y004064D03*
X003533Y004064D03*
D19*
X002470Y004074D03*
X002470Y004743D03*
D20*
X002698Y005596D03*
X003367Y005596D03*
D21*
X001595Y001096D03*
X001595Y002096D03*
X001595Y003096D03*
X001595Y004096D03*
X001595Y005096D03*
X001595Y006096D03*
X001595Y007096D03*
X001595Y008096D03*
X001595Y009096D03*
X019595Y007096D03*
X019595Y006096D03*
X019595Y005096D03*
X019595Y004096D03*
X019595Y003096D03*
D22*
X015095Y003096D03*
X015095Y002596D03*
X015095Y002096D03*
X015095Y003596D03*
X015095Y004096D03*
X015095Y004596D03*
X015095Y005096D03*
X015095Y005596D03*
X015095Y006096D03*
X015095Y006596D03*
X015095Y007096D03*
X015095Y007596D03*
X015095Y008096D03*
X007595Y007409D03*
X007095Y007409D03*
X006595Y007409D03*
X006095Y007409D03*
X005595Y007409D03*
X005095Y007409D03*
X004595Y007409D03*
X004095Y007409D03*
X003595Y007409D03*
X003595Y006909D03*
X004095Y006909D03*
X004595Y006909D03*
X005095Y006909D03*
X005595Y006909D03*
X006095Y006909D03*
X006595Y006909D03*
X007095Y006909D03*
X007595Y006909D03*
X007595Y003784D03*
X007095Y003784D03*
X006595Y003784D03*
X006095Y003784D03*
X005595Y003784D03*
X005095Y003784D03*
X004595Y003784D03*
X004095Y003784D03*
X004095Y003284D03*
X004595Y003284D03*
X005095Y003284D03*
X005595Y003284D03*
X006095Y003284D03*
X006595Y003284D03*
X007095Y003284D03*
X007595Y003284D03*
X008095Y003284D03*
X008095Y003784D03*
X008095Y002784D03*
X007595Y002784D03*
X007595Y002284D03*
X008095Y002284D03*
X008095Y001784D03*
X007595Y001784D03*
X007595Y001284D03*
X008095Y001284D03*
D23*
X005095Y001596D03*
X019595Y001596D03*
X019595Y008596D03*
X005095Y008596D03*
M02*
