G75*
G70*
%OFA0B0*%
%FSLAX24Y24*%
%IPPOS*%
%LPD*%
%AMOC8*
5,1,8,0,0,1.08239X$1,22.5*
%
%ADD10R,0.0551X0.0137*%
%ADD11R,0.0610X0.0373*%
%ADD12R,0.0137X0.0551*%
%ADD13R,0.1338X0.0571*%
%ADD14R,0.1575X0.0433*%
%ADD15R,0.1339X0.0571*%
%ADD16R,0.0353X0.0551*%
%ADD17R,0.0413X0.0425*%
%ADD18R,0.2540X0.7600*%
%ADD19R,0.0425X0.0413*%
%ADD20R,0.0433X0.0394*%
%ADD21R,0.0394X0.0433*%
%ADD22OC8,0.0600*%
%ADD23C,0.0500*%
%ADD24R,0.0357X0.0357*%
%ADD25C,0.0160*%
%ADD26C,0.0660*%
%ADD27C,0.0100*%
%ADD28C,0.1000*%
%ADD29C,0.0400*%
%ADD30C,0.0650*%
D10*
X004140Y004732D03*
X004140Y004929D03*
X004140Y005126D03*
X004140Y005322D03*
D11*
X004140Y004417D03*
D12*
X004573Y004387D03*
X004770Y004387D03*
X004632Y005805D03*
X004436Y005805D03*
D13*
X005568Y004515D03*
D14*
X005449Y005096D03*
D15*
X005568Y005677D03*
D16*
X004131Y005805D03*
D17*
X003876Y006409D03*
X004565Y006409D03*
D18*
X010040Y005096D03*
X017150Y005096D03*
D19*
X003533Y004753D03*
X003033Y004753D03*
X003033Y004064D03*
X003533Y004064D03*
D20*
X002470Y004074D03*
X002470Y004743D03*
D21*
X002698Y005596D03*
X003367Y005596D03*
D22*
X001595Y005096D03*
X001595Y004096D03*
X001595Y003096D03*
X001595Y002096D03*
X001595Y001096D03*
X001595Y006096D03*
X001595Y007096D03*
X001595Y008096D03*
X001595Y009096D03*
X019595Y007096D03*
X019595Y006096D03*
X019595Y005096D03*
X019595Y004096D03*
X019595Y003096D03*
D23*
X019095Y003087D02*
X014595Y003087D01*
X014595Y002589D02*
X019095Y002589D01*
X019095Y002548D02*
X018935Y002456D01*
X018735Y002256D01*
X018594Y002011D01*
X018520Y001738D01*
X018520Y001596D01*
X014595Y001596D01*
X014595Y008596D01*
X018520Y008596D01*
X018520Y008455D01*
X018594Y008181D01*
X018735Y007936D01*
X018935Y007736D01*
X019095Y007644D01*
X019095Y002548D01*
X018639Y002090D02*
X014595Y002090D01*
X014595Y003586D02*
X019095Y003586D01*
X019095Y004084D02*
X014595Y004084D01*
X014595Y004583D02*
X019095Y004583D01*
X019095Y005081D02*
X014595Y005081D01*
X014595Y005580D02*
X019095Y005580D01*
X019095Y006078D02*
X014595Y006078D01*
X014595Y006577D02*
X019095Y006577D01*
X019095Y007075D02*
X014595Y007075D01*
X014595Y007574D02*
X019095Y007574D01*
X018657Y008072D02*
X014595Y008072D01*
X014595Y008571D02*
X018520Y008571D01*
D24*
X015095Y008096D03*
X015095Y007596D03*
X015095Y007096D03*
X015095Y006596D03*
X015095Y006096D03*
X015095Y005596D03*
X015095Y005096D03*
X015095Y004596D03*
X015095Y004096D03*
X015095Y003596D03*
X015095Y003096D03*
X015095Y002596D03*
X015095Y002096D03*
X008095Y002284D03*
X007595Y002284D03*
X007595Y002784D03*
X008095Y002784D03*
X008095Y003284D03*
X007595Y003284D03*
X007095Y003284D03*
X006595Y003284D03*
X006095Y003284D03*
X005595Y003284D03*
X005095Y003284D03*
X004595Y003284D03*
X004095Y003284D03*
X004095Y003784D03*
X004595Y003784D03*
X005095Y003784D03*
X005595Y003784D03*
X006095Y003784D03*
X006595Y003784D03*
X007095Y003784D03*
X007595Y003784D03*
X008095Y003784D03*
X008095Y001784D03*
X007595Y001784D03*
X007595Y001284D03*
X008095Y001284D03*
X007595Y006909D03*
X007095Y006909D03*
X006595Y006909D03*
X006095Y006909D03*
X005595Y006909D03*
X005095Y006909D03*
X004595Y006909D03*
X004095Y006909D03*
X003595Y006909D03*
X003595Y007409D03*
X004095Y007409D03*
X004595Y007409D03*
X005095Y007409D03*
X005595Y007409D03*
X006095Y007409D03*
X006595Y007409D03*
X007095Y007409D03*
X007595Y007409D03*
D25*
X008408Y007387D02*
X002095Y007387D01*
X002095Y007229D02*
X008408Y007229D01*
X008408Y007070D02*
X002095Y007070D01*
X002095Y006912D02*
X008408Y006912D01*
X008408Y006753D02*
X004976Y006753D01*
X004975Y006757D02*
X004907Y006825D01*
X004819Y006861D01*
X004310Y006861D01*
X004222Y006825D01*
X004220Y006823D01*
X004218Y006825D01*
X004130Y006861D01*
X003621Y006861D01*
X003533Y006825D01*
X003531Y006822D01*
X003528Y006824D01*
X002095Y006824D01*
X002095Y009596D01*
X008408Y009596D01*
X008408Y005836D01*
X006698Y005836D01*
X006426Y005723D01*
X006255Y005553D01*
X004941Y005553D01*
X004941Y006026D01*
X004975Y006060D01*
X005011Y006148D01*
X005011Y006669D01*
X004975Y006757D01*
X005011Y006595D02*
X008408Y006595D01*
X008408Y006436D02*
X005011Y006436D01*
X005011Y006278D02*
X008408Y006278D01*
X008408Y006119D02*
X004999Y006119D01*
X004941Y005961D02*
X008408Y005961D01*
X006616Y005802D02*
X004941Y005802D01*
X004941Y005644D02*
X006346Y005644D01*
X008408Y007546D02*
X002095Y007546D01*
X002095Y007704D02*
X008408Y007704D01*
X008408Y007863D02*
X002095Y007863D01*
X002095Y008021D02*
X008408Y008021D01*
X008408Y008180D02*
X005477Y008180D01*
X005415Y008117D02*
X005574Y008276D01*
X005660Y008484D01*
X005660Y008708D01*
X005574Y008916D01*
X005415Y009075D01*
X005207Y009161D01*
X004983Y009161D01*
X004775Y009075D01*
X004616Y008916D01*
X004530Y008708D01*
X004530Y008484D01*
X004616Y008276D01*
X004775Y008117D01*
X004983Y008031D01*
X005207Y008031D01*
X005415Y008117D01*
X005600Y008338D02*
X008408Y008338D01*
X008408Y008497D02*
X005660Y008497D01*
X005660Y008655D02*
X008408Y008655D01*
X008408Y008814D02*
X005616Y008814D01*
X005518Y008972D02*
X008408Y008972D01*
X008408Y009131D02*
X005281Y009131D01*
X004910Y009131D02*
X002095Y009131D01*
X002095Y009289D02*
X008408Y009289D01*
X008408Y009448D02*
X002095Y009448D01*
X002095Y008972D02*
X004672Y008972D01*
X004574Y008814D02*
X002095Y008814D01*
X002095Y008655D02*
X004530Y008655D01*
X004530Y008497D02*
X002095Y008497D01*
X002095Y008338D02*
X004591Y008338D01*
X004713Y008180D02*
X002095Y008180D01*
X015095Y005096D02*
X017150Y005096D01*
D26*
X019095Y005096D02*
X019595Y005096D01*
X019595Y004096D02*
X019095Y004096D01*
X019095Y003096D02*
X019595Y003096D01*
X019595Y006096D02*
X019095Y006096D01*
X019095Y007096D02*
X019595Y007096D01*
X002595Y007096D02*
X001595Y007096D01*
X001595Y008096D02*
X002595Y008096D01*
X002595Y009096D02*
X001595Y009096D01*
X001595Y003096D02*
X002095Y003096D01*
X002095Y002096D02*
X001595Y002096D01*
X001595Y001096D02*
X002095Y001096D01*
D27*
X002095Y000596D02*
X006748Y000550D01*
X008408Y000550D01*
X008408Y004386D01*
X006704Y004386D01*
X006443Y004494D01*
X006383Y004554D01*
X004852Y004569D01*
X004852Y004025D01*
X004729Y003902D01*
X004418Y003902D01*
X004390Y003930D01*
X004293Y003930D01*
X004198Y003969D01*
X004147Y004020D01*
X003748Y004020D01*
X003625Y004143D01*
X003625Y004149D01*
X002897Y004149D01*
X002897Y003790D01*
X002774Y003667D01*
X002167Y003667D01*
X002095Y003739D01*
X002095Y000596D01*
X002095Y000687D02*
X008408Y000687D01*
X008408Y000589D02*
X002852Y000589D01*
X002095Y000786D02*
X008408Y000786D01*
X008408Y000884D02*
X002095Y000884D01*
X002095Y000983D02*
X008408Y000983D01*
X008408Y001081D02*
X005249Y001081D01*
X005201Y001061D02*
X005398Y001143D01*
X005548Y001293D01*
X005630Y001490D01*
X005630Y001702D01*
X005548Y001899D01*
X005398Y002049D01*
X005201Y002131D01*
X004989Y002131D01*
X004792Y002049D01*
X004642Y001899D01*
X004560Y001702D01*
X004560Y001490D01*
X004642Y001293D01*
X004792Y001143D01*
X004989Y001061D01*
X005201Y001061D01*
X004941Y001081D02*
X002095Y001081D01*
X002095Y001180D02*
X004755Y001180D01*
X004657Y001278D02*
X002095Y001278D01*
X002095Y001377D02*
X004607Y001377D01*
X004566Y001475D02*
X002095Y001475D01*
X002095Y001574D02*
X004560Y001574D01*
X004560Y001672D02*
X002095Y001672D01*
X002095Y001771D02*
X004588Y001771D01*
X004629Y001869D02*
X002095Y001869D01*
X002095Y001968D02*
X004710Y001968D01*
X004832Y002066D02*
X002095Y002066D01*
X002095Y002165D02*
X008408Y002165D01*
X008408Y002263D02*
X002095Y002263D01*
X002095Y002362D02*
X008408Y002362D01*
X008408Y002460D02*
X002095Y002460D01*
X002095Y002559D02*
X008408Y002559D01*
X008408Y002657D02*
X002095Y002657D01*
X002095Y002756D02*
X008408Y002756D01*
X008408Y002854D02*
X002095Y002854D01*
X002095Y002953D02*
X008408Y002953D01*
X008408Y003051D02*
X002095Y003051D01*
X002095Y003150D02*
X008408Y003150D01*
X008408Y003248D02*
X002095Y003248D01*
X002095Y003347D02*
X008408Y003347D01*
X008408Y003445D02*
X002095Y003445D01*
X002095Y003544D02*
X008408Y003544D01*
X008408Y003642D02*
X002095Y003642D01*
X002305Y004096D02*
X002470Y004074D01*
X002305Y004096D02*
X001595Y004096D01*
X002095Y004409D02*
X003845Y004409D01*
X003845Y004732D01*
X004140Y004732D01*
X004178Y004753D01*
X003845Y004753D01*
X003845Y004929D01*
X004140Y004929D01*
X004140Y005126D02*
X003033Y005126D01*
X003033Y006034D01*
X002970Y006096D01*
X001595Y006096D01*
X002470Y005368D02*
X002698Y005596D01*
X002470Y005368D02*
X002470Y004743D01*
X002480Y004753D01*
X003033Y004753D01*
X003533Y004753D02*
X003845Y004753D01*
X003845Y004409D02*
X004191Y004409D01*
X004140Y004417D01*
X004140Y004315D01*
X004345Y004315D01*
X004345Y004190D01*
X004564Y004190D01*
X004564Y004387D01*
X004573Y004387D01*
X004770Y004387D02*
X004770Y004108D01*
X004783Y003971D01*
X005095Y004034D01*
X005095Y004284D01*
X005568Y004515D01*
X005533Y004471D01*
X004852Y004430D02*
X006598Y004430D01*
X006408Y004529D02*
X004852Y004529D01*
X004852Y004332D02*
X008408Y004332D01*
X008408Y004233D02*
X004852Y004233D01*
X004852Y004135D02*
X008408Y004135D01*
X008408Y004036D02*
X004852Y004036D01*
X004783Y003971D02*
X003533Y003971D01*
X003533Y004064D01*
X003033Y004064D01*
X002897Y004036D02*
X003733Y004036D01*
X003634Y004135D02*
X002897Y004135D01*
X002897Y003938D02*
X004275Y003938D01*
X004765Y003938D02*
X008408Y003938D01*
X008408Y003839D02*
X002897Y003839D01*
X002847Y003741D02*
X008408Y003741D01*
X008408Y002066D02*
X005358Y002066D01*
X005480Y001968D02*
X008408Y001968D01*
X008408Y001869D02*
X005561Y001869D01*
X005602Y001771D02*
X008408Y001771D01*
X008408Y001672D02*
X005630Y001672D01*
X005630Y001574D02*
X008408Y001574D01*
X008408Y001475D02*
X005624Y001475D01*
X005583Y001377D02*
X008408Y001377D01*
X008408Y001278D02*
X005533Y001278D01*
X005435Y001180D02*
X008408Y001180D01*
X004274Y004354D02*
X004140Y004417D01*
X004140Y005322D02*
X003367Y005322D01*
X003367Y005596D01*
X004131Y005805D02*
X004131Y005979D01*
X003876Y006409D01*
X004131Y006065D02*
X004131Y005805D01*
X004436Y005805D02*
X004439Y005805D01*
X004439Y006065D01*
X004131Y006065D01*
X004632Y006265D02*
X004565Y006409D01*
X004632Y006265D02*
X004632Y005805D01*
X002095Y004409D02*
X001595Y004909D01*
X001595Y005096D01*
D28*
X006845Y005096D02*
X010040Y005096D01*
D29*
X006845Y005096D02*
X005449Y005096D01*
D30*
X005095Y001596D03*
X019595Y001596D03*
X019595Y008596D03*
X005095Y008596D03*
M02*
