%
M48
M72
T01C0.0197
T02C0.0400
T03C0.0433
%
T01
X4095Y3284
X4595Y3284
X5095Y3284
X5595Y3284
X6095Y3284
X6595Y3284
X7095Y3284
X7595Y3284
X8095Y3284
X8095Y3784
X7595Y3784
X7095Y3784
X6595Y3784
X6095Y3784
X5595Y3784
X5095Y3784
X4595Y3784
X4095Y3784
X7595Y2784
X8095Y2784
X8095Y2284
X7595Y2284
X7595Y1784
X8095Y1784
X8095Y1284
X7595Y1284
X15095Y2096
X15095Y2596
X15095Y3096
X15095Y3596
X15095Y4096
X15095Y4596
X15095Y5096
X15095Y5596
X15095Y6096
X15095Y6596
X15095Y7096
X15095Y7596
X15095Y8096
X7595Y7409
X7095Y7409
X6595Y7409
X6095Y7409
X5595Y7409
X5095Y7409
X4595Y7409
X4095Y7409
X3595Y7409
X3595Y6909
X4095Y6909
X4595Y6909
X5095Y6909
X5595Y6909
X6095Y6909
X6595Y6909
X7095Y6909
X7595Y6909
T02
X1595Y1096
X1595Y2096
X1595Y3096
X1595Y4096
X1595Y5096
X1595Y6096
X1595Y7096
X1595Y8096
X1595Y9096
X19595Y7096
X19595Y6096
X19595Y5096
X19595Y4096
X19595Y3096
T03
X19595Y1596
X5095Y1596
X5095Y8596
X19595Y8596
M30
