G75*
G70*
%OFA0B0*%
%FSLAX24Y24*%
%IPPOS*%
%LPD*%
%AMOC8*
5,1,8,0,0,1.08239X$1,22.5*
%
%ADD10C,0.0050*%
%ADD11C,0.0020*%
%ADD12C,0.0030*%
%ADD13C,0.0060*%
%ADD14C,0.0040*%
D10*
X004406Y004112D02*
X004406Y006080D01*
X005784Y006080D01*
X005784Y004112D01*
X004406Y004112D01*
D11*
X003894Y005864D02*
X003896Y005879D01*
X003901Y005892D01*
X003910Y005904D01*
X003921Y005914D01*
X003935Y005920D01*
X003949Y005923D01*
X003964Y005922D01*
X003978Y005917D01*
X003991Y005909D01*
X004001Y005899D01*
X004008Y005886D01*
X004012Y005871D01*
X004012Y005857D01*
X004008Y005842D01*
X004001Y005829D01*
X003991Y005819D01*
X003978Y005811D01*
X003964Y005806D01*
X003949Y005805D01*
X003935Y005808D01*
X003921Y005814D01*
X003910Y005824D01*
X003901Y005836D01*
X003896Y005849D01*
X003894Y005864D01*
D12*
X005170Y006149D02*
X005417Y006396D01*
X005417Y006458D01*
X005355Y006519D01*
X005232Y006519D01*
X005170Y006458D01*
X005600Y006334D02*
X005600Y006211D01*
X005600Y006087D01*
X005538Y006026D01*
X005417Y006149D02*
X005170Y006149D01*
X005600Y006211D02*
X005662Y006149D01*
X005724Y006149D01*
X005785Y006211D01*
X005785Y006334D01*
X005907Y006458D02*
X005968Y006519D01*
X006092Y006519D01*
X006154Y006458D01*
X006154Y006396D01*
X005907Y006149D01*
X006154Y006149D01*
X006343Y005227D02*
X006343Y004937D01*
X006537Y004937D01*
X006638Y004937D02*
X006638Y005227D01*
X006783Y005227D01*
X006831Y005179D01*
X006831Y005082D01*
X006783Y005034D01*
X006638Y005034D01*
X006440Y005082D02*
X006343Y005082D01*
X006343Y005227D02*
X006537Y005227D01*
X006933Y005179D02*
X006933Y004985D01*
X006981Y004937D01*
X007078Y004937D01*
X007126Y004985D01*
X007227Y004937D02*
X007421Y005130D01*
X007421Y005179D01*
X007372Y005227D01*
X007276Y005227D01*
X007227Y005179D01*
X007126Y005179D02*
X007078Y005227D01*
X006981Y005227D01*
X006933Y005179D01*
X007227Y004937D02*
X007421Y004937D01*
X007522Y004985D02*
X007570Y004937D01*
X007667Y004937D01*
X007715Y004985D01*
X007715Y005034D01*
X007667Y005082D01*
X007619Y005082D01*
X007667Y005082D02*
X007715Y005130D01*
X007715Y005179D01*
X007667Y005227D01*
X007570Y005227D01*
X007522Y005179D01*
X007817Y005130D02*
X007913Y005227D01*
X007913Y004937D01*
X007817Y004937D02*
X008010Y004937D01*
X008111Y004937D02*
X008305Y004937D01*
X008208Y004937D02*
X008208Y005227D01*
X008111Y005130D01*
X008406Y005130D02*
X008503Y005227D01*
X008503Y004937D01*
X008599Y004937D02*
X008406Y004937D01*
X003916Y003102D02*
X003854Y003164D01*
X003730Y003164D01*
X003792Y003225D01*
X003792Y003287D01*
X003730Y003349D01*
X003607Y003349D01*
X003607Y003164D02*
X003730Y003164D01*
X003792Y002980D02*
X003792Y002734D01*
X003545Y002980D01*
X003484Y002980D01*
X003422Y002919D01*
X003422Y002795D01*
X003484Y002734D01*
X003230Y002668D02*
X003230Y002421D01*
X003230Y002545D02*
X002859Y002545D01*
X002983Y002421D01*
X002921Y002789D02*
X002859Y002851D01*
X002859Y002975D01*
X002921Y003036D01*
X003168Y002789D01*
X003230Y002851D01*
X003230Y002975D01*
X003168Y003036D01*
X002921Y003036D01*
X002921Y003158D02*
X002859Y003219D01*
X002859Y003343D01*
X002921Y003405D01*
X003168Y003158D01*
X003230Y003219D01*
X003230Y003343D01*
X003168Y003405D01*
X002921Y003405D01*
X002983Y003526D02*
X002983Y003711D01*
X003045Y003773D01*
X003168Y003773D01*
X003230Y003711D01*
X003230Y003526D01*
X003353Y003526D02*
X002983Y003526D01*
X003422Y003532D02*
X003484Y003470D01*
X003422Y003532D02*
X003422Y003655D01*
X003484Y003717D01*
X003545Y003717D01*
X003792Y003470D01*
X003792Y003717D01*
X003168Y003158D02*
X002921Y003158D01*
X002921Y002789D02*
X003168Y002789D01*
X012430Y001253D02*
X012508Y001331D01*
X012665Y001331D01*
X012744Y001253D01*
X012744Y001175D01*
X012665Y001096D01*
X012744Y001018D01*
X012744Y000939D01*
X012665Y000861D01*
X012508Y000861D01*
X012430Y000939D01*
X012587Y001096D02*
X012665Y001096D01*
X012890Y000939D02*
X012969Y000861D01*
X013126Y000861D01*
X013204Y000939D01*
X013204Y001018D01*
X013126Y001096D01*
X013047Y001096D01*
X013126Y001096D02*
X013204Y001175D01*
X013204Y001253D01*
X013126Y001331D01*
X012969Y001331D01*
X012890Y001253D01*
X013429Y001096D02*
X013429Y000939D01*
X013429Y000783D01*
X013351Y000704D01*
X013508Y000861D02*
X013586Y000861D01*
X013664Y000939D01*
X013664Y001096D01*
X013429Y000939D02*
X013508Y000861D01*
D13*
X001345Y000596D02*
X001095Y000846D01*
X001095Y001346D01*
X001345Y001596D01*
X001095Y001846D01*
X001095Y002346D01*
X001345Y002596D01*
X001095Y002846D01*
X001095Y003346D01*
X001345Y003596D01*
X001095Y003846D01*
X001095Y004346D01*
X001345Y004596D01*
X001095Y004846D01*
X001095Y005346D01*
X001345Y005596D01*
X001095Y005846D01*
X001095Y006346D01*
X001345Y006596D01*
X001095Y006846D01*
X001095Y007346D01*
X001345Y007596D01*
X001095Y007846D01*
X001095Y008346D01*
X001345Y008596D01*
X001095Y008846D01*
X001095Y009346D01*
X001345Y009596D01*
X001845Y009596D01*
X002095Y009346D01*
X002095Y008846D01*
X001845Y008596D01*
X002095Y008346D01*
X002095Y007846D01*
X001845Y007596D01*
X002095Y007346D01*
X002095Y006846D01*
X001845Y006596D01*
X001345Y006596D01*
X001845Y006596D01*
X002095Y006346D01*
X002095Y005846D01*
X001845Y005596D01*
X002095Y005346D01*
X002095Y004846D01*
X001845Y004596D01*
X002095Y004346D01*
X002095Y003846D01*
X001845Y003596D01*
X001345Y003596D01*
X001845Y003596D01*
X002095Y003346D01*
X002095Y002846D01*
X001845Y002596D01*
X002095Y002346D01*
X002095Y001846D01*
X001845Y001596D01*
X002095Y001346D01*
X002095Y000846D01*
X001845Y000596D01*
X001345Y000596D01*
X001345Y001596D02*
X001845Y001596D01*
X001845Y002596D02*
X001345Y002596D01*
X001345Y004596D02*
X001845Y004596D01*
X001845Y005596D02*
X001345Y005596D01*
X001345Y007596D02*
X001845Y007596D01*
X001845Y008596D02*
X001345Y008596D01*
X008815Y009026D02*
X008815Y009536D01*
X018375Y009536D01*
X018375Y009026D01*
X019345Y007596D02*
X019845Y007596D01*
X020095Y007346D01*
X020095Y006846D01*
X019845Y006596D01*
X020095Y006346D01*
X020095Y005846D01*
X019845Y005596D01*
X020095Y005346D01*
X020095Y004846D01*
X019845Y004596D01*
X020095Y004346D01*
X020095Y003846D01*
X019845Y003596D01*
X020095Y003346D01*
X020095Y002846D01*
X019845Y002596D01*
X019345Y002596D01*
X019095Y002846D01*
X019095Y003346D01*
X019345Y003596D01*
X019095Y003846D01*
X019095Y004346D01*
X019345Y004596D01*
X019845Y004596D01*
X019345Y004596D02*
X019095Y004846D01*
X019095Y005346D01*
X019345Y005596D01*
X019095Y005846D01*
X019095Y006346D01*
X019345Y006596D01*
X019095Y006846D01*
X019095Y007346D01*
X019345Y007596D01*
X019345Y006596D02*
X019845Y006596D01*
X019845Y005596D02*
X019345Y005596D01*
X019345Y003596D02*
X019845Y003596D01*
X018375Y001166D02*
X018375Y000656D01*
X008815Y000656D01*
X008815Y001166D01*
D14*
X002763Y002297D02*
X002456Y002604D01*
X002379Y002604D01*
X002302Y002528D01*
X002302Y002374D01*
X002379Y002297D01*
X002763Y002297D02*
X002763Y002604D01*
X002763Y002758D02*
X002302Y002758D01*
X002302Y002988D01*
X002379Y003065D01*
X002532Y003065D01*
X002609Y002988D01*
X002609Y002758D01*
X002609Y002911D02*
X002763Y003065D01*
X002763Y003218D02*
X002456Y003525D01*
X002379Y003525D01*
X002302Y003448D01*
X002302Y003295D01*
X002379Y003218D01*
X002763Y003218D02*
X002763Y003525D01*
X000825Y003507D02*
X000365Y003507D01*
X000519Y003660D01*
X000365Y003814D01*
X000825Y003814D01*
X000749Y003967D02*
X000595Y003967D01*
X000519Y004044D01*
X000519Y004274D01*
X000365Y004274D02*
X000825Y004274D01*
X000825Y004044D01*
X000749Y003967D01*
X000825Y004888D02*
X000519Y004888D01*
X000365Y005041D01*
X000519Y005195D01*
X000825Y005195D01*
X000825Y005348D02*
X000825Y005655D01*
X000595Y005655D01*
X000672Y005502D01*
X000672Y005425D01*
X000595Y005348D01*
X000442Y005348D01*
X000365Y005425D01*
X000365Y005579D01*
X000442Y005655D01*
X000365Y006269D02*
X000365Y006576D01*
X000825Y006576D01*
X000825Y006269D01*
X000595Y006423D02*
X000595Y006576D01*
X000595Y007041D02*
X000595Y007348D01*
X000672Y007502D02*
X000672Y007655D01*
X000749Y007579D02*
X000442Y007579D01*
X000365Y007502D01*
X000365Y007809D02*
X000365Y008039D01*
X000442Y008116D01*
X000519Y008039D01*
X000519Y007809D01*
X000595Y007809D02*
X000365Y007809D01*
X000595Y007809D02*
X000672Y007885D01*
X000672Y008039D01*
X000672Y008269D02*
X000595Y008346D01*
X000595Y008576D01*
X000365Y008576D02*
X000365Y008346D01*
X000442Y008269D01*
X000519Y008269D01*
X000595Y008346D01*
X000672Y008269D02*
X000749Y008269D01*
X000825Y008346D01*
X000825Y008576D01*
X000365Y008576D01*
X000442Y007195D02*
X000749Y007195D01*
X002240Y006562D02*
X002317Y006639D01*
X002470Y006639D01*
X002547Y006562D01*
X002547Y006485D01*
X002240Y006179D01*
X002547Y006179D01*
X002700Y006179D02*
X002700Y006639D01*
X002931Y006639D01*
X003007Y006562D01*
X003007Y006409D01*
X002931Y006332D01*
X002700Y006332D01*
X002854Y006332D02*
X003007Y006179D01*
X003161Y006179D02*
X003468Y006485D01*
X003468Y006562D01*
X003391Y006639D01*
X003238Y006639D01*
X003161Y006562D01*
X003161Y006179D02*
X003468Y006179D01*
X000749Y002576D02*
X000442Y002576D01*
X000365Y002499D01*
X000365Y002346D01*
X000442Y002269D01*
X000595Y002269D01*
X000595Y002423D01*
X000749Y002576D02*
X000825Y002499D01*
X000825Y002346D01*
X000749Y002269D01*
X000825Y002116D02*
X000365Y002116D01*
X000365Y001809D02*
X000825Y002116D01*
X000825Y001809D02*
X000365Y001809D01*
X000365Y001655D02*
X000365Y001425D01*
X000442Y001348D01*
X000749Y001348D01*
X000825Y001425D01*
X000825Y001655D01*
X000365Y001655D01*
X020365Y004693D02*
X020441Y004616D01*
X020748Y004616D01*
X020825Y004693D01*
X020825Y004846D01*
X020748Y004923D01*
X020441Y004923D01*
X020365Y004846D01*
X020365Y004693D01*
X020518Y005076D02*
X020748Y005076D01*
X020825Y005153D01*
X020825Y005383D01*
X020518Y005383D01*
X020518Y005537D02*
X020518Y005690D01*
X020441Y005614D02*
X020748Y005614D01*
X020825Y005690D01*
M02*
