G75*
G70*
%OFA0B0*%
%FSLAX24Y24*%
%IPPOS*%
%LPD*%
%AMOC8*
5,1,8,0,0,1.08239X$1,22.5*
%
%ADD10OC8,0.0680*%
%ADD11C,0.2580*%
%ADD12R,0.0671X0.0592*%
%ADD13C,0.0600*%
%ADD14OC8,0.1320*%
%ADD15C,0.1320*%
%ADD16C,0.1080*%
%ADD17R,0.1025X0.1025*%
%ADD18C,0.1379*%
%ADD19R,0.2127X0.3525*%
%ADD20C,0.0740*%
%ADD21R,0.0789X0.1340*%
%ADD22R,0.0476X0.0476*%
D10*
X018220Y003596D03*
X019220Y003596D03*
X020220Y003596D03*
X020220Y004596D03*
X019220Y004596D03*
X018220Y004596D03*
X018595Y006846D03*
X019595Y006846D03*
X020595Y006846D03*
X021595Y006846D03*
X022595Y006846D03*
X023595Y006846D03*
X024095Y004596D03*
X025095Y004596D03*
X026095Y004596D03*
X027095Y004596D03*
X028095Y004596D03*
X028095Y003596D03*
X027095Y003596D03*
X026095Y003596D03*
X025095Y003596D03*
X024095Y003596D03*
D11*
X029845Y013596D02*
X032345Y013596D01*
X032345Y018096D02*
X029845Y018096D01*
X029845Y022096D02*
X032345Y022096D01*
X018095Y022846D02*
X018095Y025346D01*
X005845Y022096D02*
X003345Y022096D01*
X003345Y018096D02*
X005845Y018096D01*
X005845Y014096D02*
X003345Y014096D01*
X003345Y010096D02*
X005845Y010096D01*
D12*
X008595Y009722D03*
X009595Y009722D03*
X009595Y010470D03*
X008595Y010470D03*
X010595Y010470D03*
X010595Y009722D03*
X010595Y011222D03*
X010595Y011970D03*
X011095Y006970D03*
X011095Y006222D03*
X018595Y011722D03*
X019595Y010970D03*
X019595Y010222D03*
X018595Y012470D03*
D13*
X020595Y012596D03*
X020595Y011596D03*
X020595Y010596D03*
X020595Y009596D03*
X023595Y009596D03*
X023595Y010596D03*
X023595Y011596D03*
X023595Y012596D03*
X014595Y012596D03*
X014595Y011596D03*
X014595Y010596D03*
X014595Y009596D03*
X011595Y009596D03*
X011595Y010596D03*
X011595Y011596D03*
X011595Y012596D03*
D14*
X013595Y018096D03*
X022595Y018096D03*
D15*
X025595Y018096D03*
X010595Y018096D03*
D16*
X007345Y006596D03*
X008845Y004596D03*
D17*
X012229Y007096D03*
X013961Y007096D03*
X015229Y007096D03*
X016961Y007096D03*
D18*
X003095Y003596D03*
X003095Y025596D03*
X032595Y025596D03*
X032595Y003596D03*
D19*
X026221Y024096D03*
X021969Y024096D03*
X014221Y024096D03*
X009969Y024096D03*
D20*
X012595Y005096D03*
X013595Y005096D03*
X014595Y005096D03*
D21*
X013197Y024096D03*
X010993Y024096D03*
X022993Y024096D03*
X025197Y024096D03*
D22*
X018095Y014096D03*
X018595Y011096D03*
X017845Y010596D03*
X021595Y009096D03*
X021220Y005471D03*
X017845Y005471D03*
X012095Y012096D03*
X012095Y014096D03*
M02*
