G75*
G70*
%OFA0B0*%
%FSLAX24Y24*%
%IPPOS*%
%LPD*%
%AMOC8*
5,1,8,0,0,1.08239X$1,22.5*
%
%ADD10C,0.2500*%
%ADD11R,0.0591X0.0512*%
%ADD12R,0.0945X0.0945*%
%ADD13R,0.2047X0.3445*%
%ADD14R,0.0709X0.1260*%
D10*
X003345Y010096D02*
X005845Y010096D01*
X005845Y014096D02*
X003345Y014096D01*
X003345Y018096D02*
X005845Y018096D01*
X005845Y022096D02*
X003345Y022096D01*
X018095Y022846D02*
X018095Y025346D01*
X029845Y022096D02*
X032345Y022096D01*
X032345Y018096D02*
X029845Y018096D01*
X029845Y013596D02*
X032345Y013596D01*
D11*
X011095Y006222D03*
X011095Y006970D03*
X010595Y009722D03*
X010595Y010470D03*
X010595Y011222D03*
X010595Y011970D03*
X009595Y010470D03*
X008595Y010470D03*
X008595Y009722D03*
X009595Y009722D03*
X018595Y011722D03*
X019595Y010970D03*
X019595Y010222D03*
X018595Y012470D03*
D12*
X016961Y007096D03*
X015229Y007096D03*
X013961Y007096D03*
X012229Y007096D03*
D13*
X014221Y024096D03*
X009969Y024096D03*
X021969Y024096D03*
X026221Y024096D03*
D14*
X025197Y024096D03*
X022993Y024096D03*
X013197Y024096D03*
X010993Y024096D03*
M02*
