G75*
G70*
%OFA0B0*%
%FSLAX24Y24*%
%IPPOS*%
%LPD*%
%AMOC8*
5,1,8,0,0,1.08239X$1,22.5*
%
%ADD10OC8,0.0680*%
%ADD11R,0.0671X0.0592*%
%ADD12R,0.0808X0.2245*%
%ADD13C,0.0600*%
%ADD14OC8,0.1320*%
%ADD15C,0.1320*%
%ADD16C,0.1080*%
%ADD17R,0.0592X0.0671*%
%ADD18C,0.1379*%
%ADD19C,0.0740*%
%ADD20R,0.0476X0.0476*%
D10*
X018220Y003596D03*
X019220Y003596D03*
X020220Y003596D03*
X020220Y004596D03*
X019220Y004596D03*
X018220Y004596D03*
X018595Y006846D03*
X019595Y006846D03*
X020595Y006846D03*
X021595Y006846D03*
X022595Y006846D03*
X023595Y006846D03*
X024095Y004596D03*
X025095Y004596D03*
X026095Y004596D03*
X027095Y004596D03*
X028095Y004596D03*
X028095Y003596D03*
X027095Y003596D03*
X026095Y003596D03*
X025095Y003596D03*
X024095Y003596D03*
D11*
X022595Y010722D03*
X022595Y011470D03*
X021595Y011470D03*
X021595Y010722D03*
X013595Y010722D03*
X013595Y011470D03*
X012595Y011470D03*
X012595Y010722D03*
D12*
X013099Y020096D03*
X011091Y020096D03*
X023091Y020096D03*
X025099Y020096D03*
D13*
X023595Y012596D03*
X023595Y011596D03*
X023595Y010596D03*
X023595Y009596D03*
X020595Y009596D03*
X020595Y010596D03*
X020595Y011596D03*
X020595Y012596D03*
X014595Y012596D03*
X014595Y011596D03*
X014595Y010596D03*
X014595Y009596D03*
X011595Y009596D03*
X011595Y010596D03*
X011595Y011596D03*
X011595Y012596D03*
D14*
X013595Y018096D03*
X022595Y018096D03*
D15*
X025595Y018096D03*
X010595Y018096D03*
D16*
X007345Y006596D03*
X008845Y004596D03*
D17*
X012721Y004096D03*
X013469Y004096D03*
D18*
X003095Y003596D03*
X003095Y025596D03*
X032595Y025596D03*
X032595Y003596D03*
D19*
X014595Y005096D03*
X013595Y005096D03*
X012595Y005096D03*
D20*
X017845Y005471D03*
X021220Y005471D03*
X021595Y009096D03*
X018595Y011096D03*
X017845Y010596D03*
X018095Y014096D03*
X012095Y014096D03*
X012095Y012096D03*
M02*
