G75*
G70*
%OFA0B0*%
%FSLAX24Y24*%
%IPPOS*%
%LPD*%
%AMOC8*
5,1,8,0,0,1.08239X$1,22.5*
%
%ADD10OC8,0.0600*%
%ADD11R,0.0591X0.0512*%
%ADD12R,0.0728X0.2165*%
%ADD13C,0.0520*%
%ADD14OC8,0.1240*%
%ADD15C,0.1240*%
%ADD16C,0.1000*%
%ADD17R,0.0512X0.0591*%
%ADD18C,0.0660*%
%ADD19C,0.0160*%
%ADD20R,0.0396X0.0396*%
%ADD21C,0.0500*%
%ADD22C,0.0320*%
%ADD23C,0.0400*%
D10*
X018220Y003596D03*
X019220Y003596D03*
X020220Y003596D03*
X020220Y004596D03*
X019220Y004596D03*
X018220Y004596D03*
X018595Y006846D03*
X019595Y006846D03*
X020595Y006846D03*
X021595Y006846D03*
X022595Y006846D03*
X023595Y006846D03*
X024095Y004596D03*
X025095Y004596D03*
X026095Y004596D03*
X027095Y004596D03*
X028095Y004596D03*
X028095Y003596D03*
X027095Y003596D03*
X026095Y003596D03*
X025095Y003596D03*
X024095Y003596D03*
D11*
X022595Y010722D03*
X022595Y011470D03*
X021595Y011470D03*
X021595Y010722D03*
X013595Y010722D03*
X013595Y011470D03*
X012595Y011470D03*
X012595Y010722D03*
D12*
X013099Y020096D03*
X011091Y020096D03*
X023091Y020096D03*
X025099Y020096D03*
D13*
X023595Y012596D03*
X023595Y011596D03*
X023595Y010596D03*
X023595Y009596D03*
X020595Y009596D03*
X020595Y010596D03*
X020595Y011596D03*
X020595Y012596D03*
X014595Y012596D03*
X014595Y011596D03*
X014595Y010596D03*
X014595Y009596D03*
X011595Y009596D03*
X011595Y010596D03*
X011595Y011596D03*
X011595Y012596D03*
D14*
X013595Y018096D03*
X022595Y018096D03*
D15*
X025595Y018096D03*
X010595Y018096D03*
D16*
X007345Y006596D03*
X008845Y004596D03*
D17*
X012721Y004096D03*
X013469Y004096D03*
D18*
X013595Y005096D03*
X014595Y005096D03*
X012595Y005096D03*
D19*
X012595Y004096D01*
X012721Y004096D01*
X013469Y004096D02*
X013595Y004096D01*
X013595Y005096D01*
X017845Y005471D02*
X017845Y010596D01*
X018595Y011096D02*
X018595Y006846D01*
X019595Y006846D02*
X019595Y005096D01*
X019220Y004596D01*
X021220Y005471D02*
X021220Y003596D01*
X024095Y003596D01*
X022595Y006846D02*
X022595Y008596D01*
X023595Y009596D01*
X022595Y010096D02*
X022595Y010722D01*
X022595Y011470D02*
X022595Y012096D01*
X023095Y012596D02*
X023595Y012596D01*
X021595Y011470D02*
X021469Y011596D01*
X020595Y011596D01*
X020095Y011596D01*
X020095Y009596D01*
X020595Y009596D01*
X019595Y009596D01*
X019595Y011596D01*
X018095Y013096D01*
X018095Y014096D01*
X014595Y012596D02*
X013595Y012596D01*
X013595Y011470D01*
X013595Y010722D02*
X013595Y009596D01*
X012595Y010596D02*
X012595Y010722D01*
X012595Y010596D02*
X011595Y010596D01*
X011595Y009596D02*
X011095Y009596D01*
X011095Y011596D01*
X011595Y011596D01*
X012595Y011596D01*
X012595Y011470D01*
X012095Y012096D02*
X012095Y014096D01*
X011091Y020096D02*
X010595Y020096D01*
X013099Y020096D02*
X013595Y020096D01*
X022595Y020096D02*
X023091Y020096D01*
X025099Y020096D02*
X025595Y020096D01*
X021595Y010722D02*
X021469Y010596D01*
X020595Y010596D01*
X020595Y009596D02*
X020595Y006846D01*
X021595Y006846D02*
X021595Y009096D01*
D20*
X021595Y009096D03*
X018595Y011096D03*
X017845Y010596D03*
X018095Y014096D03*
X012095Y014096D03*
X012095Y012096D03*
X017845Y005471D03*
X021220Y005471D03*
D21*
X001095Y002395D02*
X001095Y001096D01*
X034595Y001096D01*
X034595Y002382D01*
X034308Y001987D01*
X034308Y001987D01*
X034308Y001987D01*
X033854Y001612D01*
X033854Y001612D01*
X033321Y001361D01*
X033321Y001361D01*
X032743Y001251D01*
X032743Y001251D01*
X032155Y001288D01*
X032155Y001288D01*
X031594Y001470D01*
X031594Y001470D01*
X031097Y001785D01*
X031097Y001785D01*
X030694Y002215D01*
X030694Y002215D01*
X030410Y002731D01*
X030410Y002731D01*
X030264Y003302D01*
X030264Y003891D01*
X030410Y004461D01*
X030410Y004461D01*
X030694Y004977D01*
X030694Y004977D01*
X031097Y005407D01*
X031097Y005407D01*
X031594Y005722D01*
X032155Y005904D01*
X032743Y005941D01*
X033321Y005831D01*
X033854Y005580D01*
X034308Y005205D01*
X034308Y005205D01*
X034595Y004810D01*
X034595Y024382D01*
X034308Y023987D01*
X034308Y023987D01*
X034308Y023987D01*
X033854Y023612D01*
X033854Y023612D01*
X033321Y023361D01*
X033321Y023361D01*
X032743Y023251D01*
X032743Y023251D01*
X032155Y023288D01*
X032155Y023288D01*
X031594Y023470D01*
X031097Y023785D01*
X030694Y024215D01*
X030694Y024215D01*
X030410Y024731D01*
X030410Y024731D01*
X030264Y025302D01*
X030264Y025891D01*
X030410Y026461D01*
X030410Y026461D01*
X030694Y026977D01*
X030694Y026977D01*
X031097Y027407D01*
X031097Y027407D01*
X031097Y027407D01*
X031395Y027596D01*
X004321Y027596D01*
X004354Y027580D01*
X004354Y027580D01*
X004808Y027205D01*
X004808Y027205D01*
X004808Y027205D01*
X005154Y026728D01*
X005154Y026728D01*
X005371Y026180D01*
X005371Y026180D01*
X005445Y025596D01*
X005371Y025012D01*
X005371Y025012D01*
X005154Y024464D01*
X004808Y023987D01*
X004808Y023987D01*
X004354Y023612D01*
X004354Y023612D01*
X003821Y023361D01*
X003243Y023251D01*
X003243Y023251D01*
X002655Y023288D01*
X002655Y023288D01*
X002094Y023470D01*
X002094Y023470D01*
X001597Y023785D01*
X001597Y023785D01*
X001194Y024215D01*
X001194Y024215D01*
X001095Y024395D01*
X001095Y004798D01*
X001194Y004977D01*
X001194Y004977D01*
X001597Y005407D01*
X001597Y005407D01*
X002094Y005722D01*
X002094Y005722D01*
X002655Y005904D01*
X002655Y005904D01*
X003243Y005941D01*
X003243Y005941D01*
X003821Y005831D01*
X003821Y005831D01*
X004354Y005580D01*
X004354Y005580D01*
X004808Y005205D01*
X004808Y005205D01*
X004808Y005205D01*
X005154Y004728D01*
X005154Y004728D01*
X005371Y004180D01*
X005371Y004180D01*
X005445Y003596D01*
X005371Y003012D01*
X005371Y003012D01*
X005154Y002464D01*
X005154Y002464D01*
X004808Y001987D01*
X004808Y001987D01*
X004354Y001612D01*
X004354Y001612D01*
X003821Y001361D01*
X003821Y001361D01*
X003243Y001251D01*
X003243Y001251D01*
X002655Y001288D01*
X002655Y001288D01*
X002094Y001470D01*
X002094Y001470D01*
X001597Y001785D01*
X001597Y001785D01*
X001194Y002215D01*
X001194Y002215D01*
X001095Y002395D01*
X001095Y002090D02*
X001311Y002090D01*
X001095Y001592D02*
X001903Y001592D01*
X004311Y001592D02*
X031403Y001592D01*
X030811Y002090D02*
X004883Y002090D01*
X005204Y002589D02*
X017743Y002589D01*
X017785Y002546D02*
X018014Y002546D01*
X018142Y002418D01*
X018436Y002296D01*
X028254Y002296D01*
X028548Y002418D01*
X028773Y002643D01*
X028877Y002893D01*
X029145Y003161D01*
X029145Y004031D01*
X029080Y004096D01*
X029145Y004161D01*
X029145Y005031D01*
X028530Y005646D01*
X028176Y005646D01*
X028048Y005774D01*
X027754Y005896D01*
X023936Y005896D01*
X023642Y005774D01*
X023417Y005549D01*
X023313Y005299D01*
X023045Y005031D01*
X023045Y004426D01*
X022895Y004426D01*
X022895Y005796D01*
X023030Y005796D01*
X023166Y005932D01*
X023202Y005896D01*
X023595Y005896D01*
X023595Y006361D01*
X023595Y006361D01*
X023595Y005896D01*
X023989Y005896D01*
X024545Y006453D01*
X024545Y006846D01*
X023645Y006846D01*
X023645Y006846D01*
X024545Y006846D01*
X024545Y007240D01*
X023989Y007796D01*
X023595Y007796D01*
X023425Y007796D01*
X023425Y008252D01*
X023770Y008597D01*
X023985Y008655D01*
X024215Y008788D01*
X024403Y008976D01*
X024536Y009206D01*
X024605Y009463D01*
X024605Y009729D01*
X024536Y009986D01*
X024473Y010096D01*
X024536Y010206D01*
X024605Y010463D01*
X024605Y010729D01*
X024536Y010986D01*
X024473Y011096D01*
X024536Y011206D01*
X024605Y011463D01*
X024605Y011729D01*
X024536Y011986D01*
X024473Y012096D01*
X024536Y012206D01*
X024605Y012463D01*
X024605Y012729D01*
X024536Y012986D01*
X024403Y013216D01*
X024215Y013404D01*
X023985Y013537D01*
X023728Y013606D01*
X023462Y013606D01*
X023205Y013537D01*
X023151Y013506D01*
X022914Y013506D01*
X022580Y013368D01*
X022108Y012896D01*
X021936Y012896D01*
X021642Y012774D01*
X021603Y012736D01*
X021536Y012986D01*
X021403Y013216D01*
X021215Y013404D01*
X020985Y013537D01*
X020728Y013606D01*
X020462Y013606D01*
X020205Y013537D01*
X019975Y013404D01*
X019787Y013216D01*
X019654Y012986D01*
X019585Y012729D01*
X019585Y012463D01*
X019654Y012206D01*
X019776Y011996D01*
X019732Y011889D01*
X019701Y011774D01*
X019685Y011656D01*
X019685Y011596D01*
X019685Y011536D01*
X019701Y011418D01*
X019732Y011303D01*
X019776Y011197D01*
X019654Y010986D01*
X019585Y010729D01*
X019585Y010463D01*
X019654Y010206D01*
X019776Y009996D01*
X019732Y009889D01*
X019701Y009774D01*
X019685Y009656D01*
X019685Y009596D01*
X019685Y009536D01*
X019701Y009418D01*
X019732Y009303D01*
X019777Y009193D01*
X019837Y009089D01*
X019909Y008995D01*
X019994Y008910D01*
X020088Y008838D01*
X020192Y008778D01*
X020302Y008733D01*
X020417Y008702D01*
X020535Y008686D01*
X020595Y008686D01*
X020595Y009586D01*
X020595Y009586D01*
X020595Y008686D01*
X020655Y008686D01*
X020672Y008688D01*
X020761Y008473D01*
X020765Y008469D01*
X020765Y007796D01*
X020595Y007796D01*
X020202Y007796D01*
X020166Y007760D01*
X020030Y007896D01*
X019425Y007896D01*
X019425Y010469D01*
X019429Y010473D01*
X019543Y010749D01*
X019543Y011443D01*
X019429Y011719D01*
X019218Y011930D01*
X018942Y012044D01*
X018248Y012044D01*
X017972Y011930D01*
X017761Y011719D01*
X017689Y011544D01*
X017498Y011544D01*
X017222Y011430D01*
X017011Y011219D01*
X016897Y010943D01*
X016897Y010249D01*
X017011Y009973D01*
X017015Y009969D01*
X017015Y006098D01*
X017011Y006094D01*
X016897Y005818D01*
X016897Y005124D01*
X017011Y004848D01*
X017170Y004689D01*
X017170Y004161D01*
X017235Y004096D01*
X017170Y004031D01*
X017170Y003161D01*
X017785Y002546D01*
X017244Y003087D02*
X013214Y003087D01*
X013126Y003051D02*
X013368Y003151D01*
X013469Y003151D01*
X013469Y003232D01*
X013469Y003232D01*
X013469Y003151D01*
X013768Y003151D01*
X013852Y003162D01*
X013934Y003184D01*
X014013Y003217D01*
X014087Y003259D01*
X014154Y003311D01*
X014215Y003371D01*
X014267Y003439D01*
X014309Y003513D01*
X014342Y003591D01*
X014364Y003674D01*
X014375Y003758D01*
X014375Y004037D01*
X014453Y004016D01*
X014737Y004016D01*
X015012Y004090D01*
X015258Y004232D01*
X015459Y004433D01*
X015601Y004679D01*
X015675Y004954D01*
X015675Y005238D01*
X015601Y005513D01*
X015459Y005759D01*
X015258Y005960D01*
X015012Y006102D01*
X014737Y006176D01*
X014453Y006176D01*
X014178Y006102D01*
X013990Y005994D01*
X013971Y006003D01*
X013867Y006039D01*
X013759Y006064D01*
X013650Y006076D01*
X013595Y006076D01*
X013540Y006076D01*
X013431Y006064D01*
X013323Y006039D01*
X013219Y006003D01*
X013200Y005994D01*
X013012Y006102D01*
X012737Y006176D01*
X012453Y006176D01*
X012178Y006102D01*
X011932Y005960D01*
X011731Y005759D01*
X011589Y005513D01*
X011515Y005238D01*
X011515Y005046D01*
X010019Y005046D01*
X010010Y005079D01*
X009845Y005364D01*
X009613Y005596D01*
X009328Y005761D01*
X009010Y005846D01*
X008681Y005846D01*
X008363Y005761D01*
X008162Y005645D01*
X008345Y005829D01*
X008510Y006114D01*
X008595Y006431D01*
X008595Y006761D01*
X008510Y007079D01*
X008345Y007364D01*
X008113Y007596D01*
X007828Y007761D01*
X007510Y007846D01*
X007181Y007846D01*
X006863Y007761D01*
X006578Y007596D01*
X006345Y007364D01*
X006180Y007079D01*
X006095Y006761D01*
X006095Y006431D01*
X006180Y006114D01*
X006345Y005829D01*
X006578Y005596D01*
X006863Y005431D01*
X007181Y005346D01*
X007510Y005346D01*
X007828Y005431D01*
X008029Y005547D01*
X007845Y005364D01*
X007680Y005079D01*
X007595Y004761D01*
X007595Y004431D01*
X007680Y004114D01*
X007845Y003829D01*
X008078Y003596D01*
X008363Y003431D01*
X008436Y003412D01*
X008557Y003291D01*
X008906Y003146D01*
X012086Y003146D01*
X012316Y003051D01*
X013126Y003051D01*
X012228Y003087D02*
X005381Y003087D01*
X005444Y003586D02*
X008095Y003586D01*
X007697Y004084D02*
X005383Y004084D01*
X005212Y004583D02*
X007595Y004583D01*
X007682Y005081D02*
X004898Y005081D01*
X004355Y005580D02*
X006606Y005580D01*
X006201Y006078D02*
X001095Y006078D01*
X001095Y006577D02*
X006095Y006577D01*
X006179Y007075D02*
X001095Y007075D01*
X001095Y007574D02*
X006555Y007574D01*
X008135Y007574D02*
X017015Y007574D01*
X017015Y008072D02*
X013702Y008072D01*
X013773Y008143D02*
X013895Y008437D01*
X013895Y008755D01*
X013816Y008947D01*
X013975Y008788D01*
X014205Y008655D01*
X014462Y008586D01*
X014728Y008586D01*
X014985Y008655D01*
X015215Y008788D01*
X015403Y008976D01*
X015536Y009206D01*
X015605Y009463D01*
X015605Y009729D01*
X015536Y009986D01*
X015473Y010096D01*
X015536Y010206D01*
X015605Y010463D01*
X015605Y010729D01*
X015536Y010986D01*
X015473Y011096D01*
X015536Y011206D01*
X015605Y011463D01*
X015605Y011729D01*
X015536Y011986D01*
X015473Y012096D01*
X015536Y012206D01*
X015605Y012463D01*
X015605Y012729D01*
X015536Y012986D01*
X015403Y013216D01*
X015215Y013404D01*
X014985Y013537D01*
X014728Y013606D01*
X014462Y013606D01*
X014205Y013537D01*
X014013Y013426D01*
X013430Y013426D01*
X013125Y013300D01*
X012925Y013100D01*
X012925Y013469D01*
X012929Y013473D01*
X013043Y013749D01*
X013043Y014443D01*
X012929Y014719D01*
X012718Y014930D01*
X012442Y015044D01*
X011748Y015044D01*
X011472Y014930D01*
X011261Y014719D01*
X011147Y014443D01*
X011147Y013749D01*
X011232Y013544D01*
X011205Y013537D01*
X010975Y013404D01*
X010787Y013216D01*
X010654Y012986D01*
X010630Y012896D01*
X010436Y012896D01*
X010142Y012774D01*
X009917Y012549D01*
X009795Y012255D01*
X009795Y008937D01*
X009917Y008643D01*
X010142Y008418D01*
X010436Y008296D01*
X010754Y008296D01*
X010839Y008331D01*
X010917Y008143D01*
X011142Y007918D01*
X011436Y007796D01*
X013254Y007796D01*
X013548Y007918D01*
X013773Y008143D01*
X013895Y008571D02*
X017015Y008571D01*
X017015Y009069D02*
X015457Y009069D01*
X015605Y009568D02*
X017015Y009568D01*
X016973Y010066D02*
X015490Y010066D01*
X015605Y010565D02*
X016897Y010565D01*
X016947Y011063D02*
X015492Y011063D01*
X015605Y011562D02*
X017696Y011562D01*
X019494Y011562D02*
X019685Y011562D01*
X019685Y011596D02*
X020425Y011596D01*
X020425Y011596D01*
X020425Y011596D01*
X019685Y011596D01*
X019738Y012060D02*
X015493Y012060D01*
X015605Y012559D02*
X019585Y012559D01*
X019695Y013057D02*
X015495Y013057D01*
X014916Y013556D02*
X020274Y013556D01*
X020916Y013556D02*
X023274Y013556D01*
X023916Y013556D02*
X034595Y013556D01*
X034595Y014054D02*
X013043Y014054D01*
X012963Y013556D02*
X014274Y013556D01*
X012998Y014553D02*
X034595Y014553D01*
X034595Y015051D02*
X001095Y015051D01*
X001095Y014553D02*
X011192Y014553D01*
X011147Y014054D02*
X001095Y014054D01*
X001095Y013556D02*
X011227Y013556D01*
X010695Y013057D02*
X001095Y013057D01*
X001095Y012559D02*
X009926Y012559D01*
X009795Y012060D02*
X001095Y012060D01*
X001095Y011562D02*
X009795Y011562D01*
X009795Y011063D02*
X001095Y011063D01*
X001095Y010565D02*
X009795Y010565D01*
X009795Y010066D02*
X001095Y010066D01*
X001095Y009568D02*
X009795Y009568D01*
X009795Y009069D02*
X001095Y009069D01*
X001095Y008571D02*
X009989Y008571D01*
X010988Y008072D02*
X001095Y008072D01*
X001095Y005580D02*
X001869Y005580D01*
X001291Y005081D02*
X001095Y005081D01*
X008489Y006078D02*
X012136Y006078D01*
X011627Y005580D02*
X009629Y005580D01*
X010008Y005081D02*
X011515Y005081D01*
X013054Y006078D02*
X014136Y006078D01*
X013595Y006076D02*
X013595Y005524D01*
X013595Y006076D01*
X013595Y005580D02*
X013595Y005580D01*
X013595Y005524D02*
X013595Y005524D01*
X013595Y005524D01*
X015054Y006078D02*
X017005Y006078D01*
X017015Y006577D02*
X008595Y006577D01*
X008511Y007075D02*
X017015Y007075D01*
X016897Y005580D02*
X015563Y005580D01*
X015675Y005081D02*
X016915Y005081D01*
X017170Y004583D02*
X015546Y004583D01*
X014991Y004084D02*
X017223Y004084D01*
X017170Y003586D02*
X014339Y003586D01*
X019425Y008072D02*
X020765Y008072D01*
X020595Y007796D02*
X020595Y007331D01*
X020595Y007796D01*
X020595Y007574D02*
X020595Y007574D01*
X020595Y007331D02*
X020595Y007331D01*
X020595Y007331D01*
X020721Y008571D02*
X019425Y008571D01*
X019425Y009069D02*
X019852Y009069D01*
X019685Y009568D02*
X019425Y009568D01*
X019685Y009596D02*
X020425Y009596D01*
X020425Y009596D01*
X019685Y009596D01*
X019735Y010066D02*
X019425Y010066D01*
X019467Y010565D02*
X019585Y010565D01*
X019543Y011063D02*
X019698Y011063D01*
X020595Y009568D02*
X020595Y009568D01*
X020595Y009069D02*
X020595Y009069D01*
X023425Y008072D02*
X034595Y008072D01*
X034595Y008571D02*
X023743Y008571D01*
X023595Y007796D02*
X023595Y007331D01*
X023595Y007796D01*
X023595Y007574D02*
X023595Y007574D01*
X023595Y007331D02*
X023595Y007331D01*
X024211Y007574D02*
X034595Y007574D01*
X034595Y007075D02*
X024545Y007075D01*
X024545Y006577D02*
X034595Y006577D01*
X034595Y006078D02*
X024171Y006078D01*
X023595Y006078D02*
X023595Y006078D01*
X023447Y005580D02*
X022895Y005580D01*
X022895Y005081D02*
X023095Y005081D01*
X023045Y004583D02*
X022895Y004583D01*
X024457Y009069D02*
X034595Y009069D01*
X034595Y009568D02*
X024605Y009568D01*
X024490Y010066D02*
X034595Y010066D01*
X034595Y010565D02*
X024605Y010565D01*
X024492Y011063D02*
X034595Y011063D01*
X034595Y011562D02*
X024605Y011562D01*
X024493Y012060D02*
X034595Y012060D01*
X034595Y012559D02*
X024605Y012559D01*
X024495Y013057D02*
X034595Y013057D01*
X034595Y015550D02*
X001095Y015550D01*
X001095Y016048D02*
X034595Y016048D01*
X034595Y016547D02*
X001095Y016547D01*
X001095Y017045D02*
X009709Y017045D01*
X009754Y017000D02*
X010066Y016819D01*
X010415Y016726D01*
X010775Y016726D01*
X011124Y016819D01*
X011436Y017000D01*
X011691Y017255D01*
X011872Y017567D01*
X011965Y017916D01*
X011965Y018276D01*
X011926Y018423D01*
X012091Y018589D01*
X012149Y018729D01*
X012151Y018725D01*
X012193Y018651D01*
X012245Y018584D01*
X012305Y018524D01*
X012325Y018509D01*
X012325Y018096D01*
X012325Y017570D01*
X013069Y016826D01*
X013595Y016826D01*
X013595Y017965D01*
X013595Y017965D01*
X013595Y016826D01*
X014121Y016826D01*
X014865Y017570D01*
X014865Y018096D01*
X014726Y018096D01*
X014726Y018096D01*
X014865Y018096D01*
X014865Y018365D01*
X014895Y018437D01*
X014895Y020755D01*
X014773Y021049D01*
X014548Y021274D01*
X014395Y021338D01*
X014395Y021505D01*
X014273Y021799D01*
X014048Y022024D01*
X013754Y022146D01*
X010436Y022146D01*
X010142Y022024D01*
X009917Y021799D01*
X009795Y021505D01*
X009795Y021187D01*
X009917Y020893D01*
X009947Y020862D01*
X009747Y020663D01*
X009595Y020295D01*
X009595Y019034D01*
X009499Y018937D01*
X009318Y018625D01*
X009225Y018276D01*
X009225Y017916D01*
X009318Y017567D01*
X009499Y017255D01*
X009754Y017000D01*
X009332Y017544D02*
X001095Y017544D01*
X001095Y018042D02*
X009225Y018042D01*
X009296Y018541D02*
X001095Y018541D01*
X001095Y019039D02*
X009595Y019039D01*
X009595Y019538D02*
X001095Y019538D01*
X001095Y020036D02*
X009595Y020036D01*
X009694Y020535D02*
X001095Y020535D01*
X001095Y021033D02*
X009859Y021033D01*
X009806Y021532D02*
X001095Y021532D01*
X001095Y022030D02*
X010156Y022030D01*
X010595Y020096D02*
X010595Y018096D01*
X011965Y018042D02*
X012325Y018042D01*
X012325Y018096D02*
X013464Y018096D01*
X013464Y018096D01*
X012325Y018096D01*
X012288Y018541D02*
X012043Y018541D01*
X011858Y017544D02*
X012352Y017544D01*
X012850Y017045D02*
X011482Y017045D01*
X013595Y017045D02*
X013595Y017045D01*
X013595Y017544D02*
X013595Y017544D01*
X013595Y018096D02*
X013595Y020096D01*
X014895Y020036D02*
X021295Y020036D01*
X021295Y019538D02*
X014895Y019538D01*
X014895Y019039D02*
X021295Y019039D01*
X021295Y018541D02*
X014895Y018541D01*
X014865Y018042D02*
X021325Y018042D01*
X021325Y018096D02*
X021325Y017570D01*
X022069Y016826D01*
X022595Y016826D01*
X022595Y017965D01*
X022595Y016826D01*
X023121Y016826D01*
X023865Y017570D01*
X023865Y018096D01*
X022726Y018096D01*
X022726Y018096D01*
X023865Y018096D01*
X023865Y018509D01*
X023885Y018524D01*
X023945Y018584D01*
X023997Y018651D01*
X024040Y018725D01*
X024041Y018729D01*
X024099Y018589D01*
X024264Y018423D01*
X024225Y018276D01*
X024225Y017916D01*
X024318Y017567D01*
X024499Y017255D01*
X024754Y017000D01*
X025066Y016819D01*
X025415Y016726D01*
X025775Y016726D01*
X026124Y016819D01*
X026436Y017000D01*
X026691Y017255D01*
X026872Y017567D01*
X026965Y017916D01*
X026965Y018276D01*
X026872Y018625D01*
X026691Y018937D01*
X026595Y019034D01*
X026595Y020295D01*
X026443Y020663D01*
X026213Y020892D01*
X026213Y021328D01*
X026099Y021604D01*
X025888Y021815D01*
X025666Y021907D01*
X025548Y022024D01*
X025254Y022146D01*
X022936Y022146D01*
X022642Y022024D01*
X022417Y021799D01*
X022390Y021735D01*
X022365Y021720D01*
X022297Y021668D01*
X022237Y021608D01*
X022185Y021541D01*
X022143Y021467D01*
X022113Y021396D01*
X021936Y021396D01*
X021642Y021274D01*
X021417Y021049D01*
X021295Y020755D01*
X021295Y018437D01*
X021325Y018365D01*
X021325Y018096D01*
X021464Y018096D01*
X021464Y018096D01*
X021325Y018096D01*
X021352Y017544D02*
X014839Y017544D01*
X014340Y017045D02*
X021850Y017045D01*
X022595Y017045D02*
X022595Y017045D01*
X022595Y017544D02*
X022595Y017544D01*
X022595Y017965D02*
X022595Y017965D01*
X022595Y018096D02*
X022595Y020096D01*
X021295Y020535D02*
X014895Y020535D01*
X014780Y021033D02*
X021410Y021033D01*
X022180Y021532D02*
X014384Y021532D01*
X014034Y022030D02*
X022656Y022030D01*
X025534Y022030D02*
X034595Y022030D01*
X034595Y021532D02*
X026129Y021532D01*
X026213Y021033D02*
X034595Y021033D01*
X034595Y020535D02*
X026496Y020535D01*
X026595Y020036D02*
X034595Y020036D01*
X034595Y019538D02*
X026595Y019538D01*
X026595Y019039D02*
X034595Y019039D01*
X034595Y018541D02*
X026894Y018541D01*
X026965Y018042D02*
X034595Y018042D01*
X034595Y017544D02*
X026858Y017544D01*
X026482Y017045D02*
X034595Y017045D01*
X034595Y022529D02*
X001095Y022529D01*
X001095Y023027D02*
X034595Y023027D01*
X034595Y023526D02*
X033671Y023526D01*
X034335Y024024D02*
X034595Y024024D01*
X031506Y023526D02*
X004171Y023526D01*
X004835Y024024D02*
X030873Y024024D01*
X030525Y024523D02*
X005178Y024523D01*
X005372Y025021D02*
X030336Y025021D01*
X030264Y025520D02*
X005435Y025520D01*
X005392Y026018D02*
X030296Y026018D01*
X030441Y026517D02*
X005238Y026517D01*
X004946Y027015D02*
X030729Y027015D01*
X031265Y027514D02*
X004435Y027514D01*
X001373Y024024D02*
X001095Y024024D01*
X001095Y023526D02*
X002006Y023526D01*
X021495Y013057D02*
X022269Y013057D01*
X023340Y017045D02*
X024709Y017045D01*
X024332Y017544D02*
X023839Y017544D01*
X023865Y018042D02*
X024225Y018042D01*
X024147Y018541D02*
X023902Y018541D01*
X025595Y018096D02*
X025595Y020096D01*
X028596Y005580D02*
X031369Y005580D01*
X030791Y005081D02*
X029095Y005081D01*
X029145Y004583D02*
X030477Y004583D01*
X030313Y004084D02*
X029092Y004084D01*
X029145Y003586D02*
X030264Y003586D01*
X030319Y003087D02*
X029071Y003087D01*
X028719Y002589D02*
X030488Y002589D01*
X033811Y001592D02*
X034595Y001592D01*
X034595Y002090D02*
X034383Y002090D01*
X034398Y005081D02*
X034595Y005081D01*
X034595Y005580D02*
X033855Y005580D01*
D22*
X027095Y004596D02*
X027095Y003596D01*
X026095Y003596D02*
X026095Y004596D01*
X020220Y004596D02*
X020220Y003596D01*
X019220Y003596D02*
X019220Y004596D01*
X018220Y004596D02*
X018220Y003596D01*
X013595Y005096D02*
X013595Y009596D01*
X011595Y009596D01*
X020595Y009596D02*
X022095Y009596D01*
X022595Y010096D01*
X022595Y012096D02*
X023095Y012596D01*
D23*
X012595Y004096D02*
X009095Y004096D01*
X008845Y004346D01*
X008845Y004596D01*
M02*
