%
M48
M72
T01C0.0236
T02C0.0320
T03C0.0394
T04C0.0400
T05C0.0472
T06C0.1299
%
T01
X12095Y12096
X12095Y14096
X17845Y10596
X18595Y11096
X21595Y9096
X21220Y5471
X17845Y5471
X18095Y14096
T02
X20595Y12596
X20595Y11596
X20595Y10596
X20595Y9596
X23595Y9596
X23595Y10596
X23595Y11596
X23595Y12596
X14595Y12596
X14595Y11596
X14595Y10596
X14595Y9596
X11595Y9596
X11595Y10596
X11595Y11596
X11595Y12596
T03
X12595Y5096
X13595Y5096
X14595Y5096
T04
X18220Y4596
X19220Y4596
X20220Y4596
X20220Y3596
X19220Y3596
X18220Y3596
X18595Y6846
X19595Y6846
X20595Y6846
X21595Y6846
X22595Y6846
X23595Y6846
X24095Y4596
X25095Y4596
X26095Y4596
X27095Y4596
X28095Y4596
X28095Y3596
X27095Y3596
X26095Y3596
X25095Y3596
X24095Y3596
X22595Y18096
X25595Y18096
X13595Y18096
X10595Y18096
T05
X7345Y6596
X8845Y4596
T06
X3095Y3596
X3095Y25596
X32595Y25596
X32595Y3596
M30
