G75*
G70*
%OFA0B0*%
%FSLAX24Y24*%
%IPPOS*%
%LPD*%
%AMOC8*
5,1,8,0,0,1.08239X$1,22.5*
%
%ADD10C,0.0060*%
%ADD11C,0.0050*%
%ADD12C,0.0040*%
%ADD13C,0.0030*%
%ADD14R,0.0250X0.1500*%
%ADD15C,0.0080*%
%ADD16C,0.0039*%
%ADD17C,0.0320*%
D10*
X001745Y003596D02*
X001747Y003669D01*
X001753Y003742D01*
X001763Y003814D01*
X001777Y003886D01*
X001794Y003957D01*
X001816Y004027D01*
X001841Y004096D01*
X001870Y004163D01*
X001902Y004228D01*
X001938Y004292D01*
X001978Y004354D01*
X002020Y004413D01*
X002066Y004470D01*
X002115Y004524D01*
X002167Y004576D01*
X002221Y004625D01*
X002278Y004671D01*
X002337Y004713D01*
X002399Y004753D01*
X002463Y004789D01*
X002528Y004821D01*
X002595Y004850D01*
X002664Y004875D01*
X002734Y004897D01*
X002805Y004914D01*
X002877Y004928D01*
X002949Y004938D01*
X003022Y004944D01*
X003095Y004946D01*
X003168Y004944D01*
X003241Y004938D01*
X003313Y004928D01*
X003385Y004914D01*
X003456Y004897D01*
X003526Y004875D01*
X003595Y004850D01*
X003662Y004821D01*
X003727Y004789D01*
X003791Y004753D01*
X003853Y004713D01*
X003912Y004671D01*
X003969Y004625D01*
X004023Y004576D01*
X004075Y004524D01*
X004124Y004470D01*
X004170Y004413D01*
X004212Y004354D01*
X004252Y004292D01*
X004288Y004228D01*
X004320Y004163D01*
X004349Y004096D01*
X004374Y004027D01*
X004396Y003957D01*
X004413Y003886D01*
X004427Y003814D01*
X004437Y003742D01*
X004443Y003669D01*
X004445Y003596D01*
X004443Y003523D01*
X004437Y003450D01*
X004427Y003378D01*
X004413Y003306D01*
X004396Y003235D01*
X004374Y003165D01*
X004349Y003096D01*
X004320Y003029D01*
X004288Y002964D01*
X004252Y002900D01*
X004212Y002838D01*
X004170Y002779D01*
X004124Y002722D01*
X004075Y002668D01*
X004023Y002616D01*
X003969Y002567D01*
X003912Y002521D01*
X003853Y002479D01*
X003791Y002439D01*
X003727Y002403D01*
X003662Y002371D01*
X003595Y002342D01*
X003526Y002317D01*
X003456Y002295D01*
X003385Y002278D01*
X003313Y002264D01*
X003241Y002254D01*
X003168Y002248D01*
X003095Y002246D01*
X003022Y002248D01*
X002949Y002254D01*
X002877Y002264D01*
X002805Y002278D01*
X002734Y002295D01*
X002664Y002317D01*
X002595Y002342D01*
X002528Y002371D01*
X002463Y002403D01*
X002399Y002439D01*
X002337Y002479D01*
X002278Y002521D01*
X002221Y002567D01*
X002167Y002616D01*
X002115Y002668D01*
X002066Y002722D01*
X002020Y002779D01*
X001978Y002838D01*
X001938Y002900D01*
X001902Y002964D01*
X001870Y003029D01*
X001841Y003096D01*
X001816Y003165D01*
X001794Y003235D01*
X001777Y003306D01*
X001763Y003378D01*
X001753Y003450D01*
X001747Y003523D01*
X001745Y003596D01*
X011995Y009096D02*
X014195Y009096D01*
X014195Y013096D01*
X013345Y013096D01*
X013343Y013066D01*
X013338Y013036D01*
X013329Y013007D01*
X013316Y012980D01*
X013301Y012954D01*
X013282Y012930D01*
X013261Y012909D01*
X013237Y012890D01*
X013211Y012875D01*
X013184Y012862D01*
X013155Y012853D01*
X013125Y012848D01*
X013095Y012846D01*
X013065Y012848D01*
X013035Y012853D01*
X013006Y012862D01*
X012979Y012875D01*
X012953Y012890D01*
X012929Y012909D01*
X012908Y012930D01*
X012889Y012954D01*
X012874Y012980D01*
X012861Y013007D01*
X012852Y013036D01*
X012847Y013066D01*
X012845Y013096D01*
X011995Y013096D01*
X011995Y009096D01*
X017720Y004846D02*
X017970Y005096D01*
X018470Y005096D01*
X018720Y004846D01*
X018720Y003346D01*
X018970Y003096D01*
X019470Y003096D01*
X019720Y003346D01*
X019970Y003096D01*
X020470Y003096D01*
X020720Y003346D01*
X020720Y004846D01*
X020470Y005096D01*
X019970Y005096D01*
X019720Y004846D01*
X019720Y003346D01*
X018720Y003346D02*
X018470Y003096D01*
X017970Y003096D01*
X017720Y003346D01*
X017720Y004846D01*
X018720Y004846D02*
X018970Y005096D01*
X019470Y005096D01*
X019720Y004846D01*
X019845Y006346D02*
X019345Y006346D01*
X019095Y006596D01*
X018845Y006346D01*
X018345Y006346D01*
X018095Y006596D01*
X018095Y007096D01*
X018345Y007346D01*
X018845Y007346D01*
X019095Y007096D01*
X019345Y007346D01*
X019845Y007346D01*
X020095Y007096D01*
X020095Y006596D01*
X019845Y006346D01*
X020095Y006596D02*
X020095Y007096D01*
X020345Y007346D01*
X020845Y007346D01*
X021095Y007096D01*
X021345Y007346D01*
X021845Y007346D01*
X022095Y007096D01*
X022345Y007346D01*
X022845Y007346D01*
X023095Y007096D01*
X023345Y007346D01*
X023845Y007346D01*
X024095Y007096D01*
X024095Y006596D01*
X023845Y006346D01*
X023345Y006346D01*
X023095Y006596D01*
X022845Y006346D01*
X022345Y006346D01*
X022095Y006596D01*
X022095Y007096D01*
X022095Y006596D01*
X021845Y006346D01*
X021345Y006346D01*
X021095Y006596D01*
X020845Y006346D01*
X020345Y006346D01*
X020095Y006596D01*
X019095Y006596D02*
X019095Y007096D01*
X021095Y007096D02*
X021095Y006596D01*
X023095Y006596D02*
X023095Y007096D01*
X023195Y009096D02*
X020995Y009096D01*
X020995Y013096D01*
X021845Y013096D01*
X021847Y013066D01*
X021852Y013036D01*
X021861Y013007D01*
X021874Y012980D01*
X021889Y012954D01*
X021908Y012930D01*
X021929Y012909D01*
X021953Y012890D01*
X021979Y012875D01*
X022006Y012862D01*
X022035Y012853D01*
X022065Y012848D01*
X022095Y012846D01*
X022125Y012848D01*
X022155Y012853D01*
X022184Y012862D01*
X022211Y012875D01*
X022237Y012890D01*
X022261Y012909D01*
X022282Y012930D01*
X022301Y012954D01*
X022316Y012980D01*
X022329Y013007D01*
X022338Y013036D01*
X022343Y013066D01*
X022345Y013096D01*
X023195Y013096D01*
X023195Y009096D01*
X023845Y005096D02*
X024345Y005096D01*
X024595Y004846D01*
X024595Y003346D01*
X024345Y003096D01*
X023845Y003096D01*
X023595Y003346D01*
X023595Y004846D01*
X023845Y005096D01*
X024595Y004846D02*
X024845Y005096D01*
X025345Y005096D01*
X025595Y004846D01*
X025595Y003346D01*
X025345Y003096D01*
X024845Y003096D01*
X024595Y003346D01*
X025595Y003346D02*
X025845Y003096D01*
X026345Y003096D01*
X026595Y003346D01*
X026595Y004846D01*
X026345Y005096D01*
X025845Y005096D01*
X025595Y004846D01*
X026595Y004846D02*
X026845Y005096D01*
X027345Y005096D01*
X027595Y004846D01*
X027595Y003346D01*
X027345Y003096D01*
X026845Y003096D01*
X026595Y003346D01*
X027595Y003346D02*
X027845Y003096D01*
X028345Y003096D01*
X028595Y003346D01*
X028595Y004846D01*
X028345Y005096D01*
X027845Y005096D01*
X027595Y004846D01*
X031245Y003596D02*
X031247Y003669D01*
X031253Y003742D01*
X031263Y003814D01*
X031277Y003886D01*
X031294Y003957D01*
X031316Y004027D01*
X031341Y004096D01*
X031370Y004163D01*
X031402Y004228D01*
X031438Y004292D01*
X031478Y004354D01*
X031520Y004413D01*
X031566Y004470D01*
X031615Y004524D01*
X031667Y004576D01*
X031721Y004625D01*
X031778Y004671D01*
X031837Y004713D01*
X031899Y004753D01*
X031963Y004789D01*
X032028Y004821D01*
X032095Y004850D01*
X032164Y004875D01*
X032234Y004897D01*
X032305Y004914D01*
X032377Y004928D01*
X032449Y004938D01*
X032522Y004944D01*
X032595Y004946D01*
X032668Y004944D01*
X032741Y004938D01*
X032813Y004928D01*
X032885Y004914D01*
X032956Y004897D01*
X033026Y004875D01*
X033095Y004850D01*
X033162Y004821D01*
X033227Y004789D01*
X033291Y004753D01*
X033353Y004713D01*
X033412Y004671D01*
X033469Y004625D01*
X033523Y004576D01*
X033575Y004524D01*
X033624Y004470D01*
X033670Y004413D01*
X033712Y004354D01*
X033752Y004292D01*
X033788Y004228D01*
X033820Y004163D01*
X033849Y004096D01*
X033874Y004027D01*
X033896Y003957D01*
X033913Y003886D01*
X033927Y003814D01*
X033937Y003742D01*
X033943Y003669D01*
X033945Y003596D01*
X033943Y003523D01*
X033937Y003450D01*
X033927Y003378D01*
X033913Y003306D01*
X033896Y003235D01*
X033874Y003165D01*
X033849Y003096D01*
X033820Y003029D01*
X033788Y002964D01*
X033752Y002900D01*
X033712Y002838D01*
X033670Y002779D01*
X033624Y002722D01*
X033575Y002668D01*
X033523Y002616D01*
X033469Y002567D01*
X033412Y002521D01*
X033353Y002479D01*
X033291Y002439D01*
X033227Y002403D01*
X033162Y002371D01*
X033095Y002342D01*
X033026Y002317D01*
X032956Y002295D01*
X032885Y002278D01*
X032813Y002264D01*
X032741Y002254D01*
X032668Y002248D01*
X032595Y002246D01*
X032522Y002248D01*
X032449Y002254D01*
X032377Y002264D01*
X032305Y002278D01*
X032234Y002295D01*
X032164Y002317D01*
X032095Y002342D01*
X032028Y002371D01*
X031963Y002403D01*
X031899Y002439D01*
X031837Y002479D01*
X031778Y002521D01*
X031721Y002567D01*
X031667Y002616D01*
X031615Y002668D01*
X031566Y002722D01*
X031520Y002779D01*
X031478Y002838D01*
X031438Y002900D01*
X031402Y002964D01*
X031370Y003029D01*
X031341Y003096D01*
X031316Y003165D01*
X031294Y003235D01*
X031277Y003306D01*
X031263Y003378D01*
X031253Y003450D01*
X031247Y003523D01*
X031245Y003596D01*
X020234Y016839D02*
X020318Y016923D01*
X020318Y017089D01*
X020401Y017006D01*
X020485Y017006D01*
X020568Y017089D01*
X020568Y017256D01*
X020318Y017256D02*
X020318Y017089D01*
X020052Y017423D02*
X019719Y017089D01*
X019719Y017006D01*
X019453Y017006D02*
X019453Y017506D01*
X019203Y017256D01*
X019537Y017256D01*
X019719Y017506D02*
X020052Y017506D01*
X020052Y017423D01*
X020218Y018316D02*
X020134Y018399D01*
X020134Y018483D01*
X020218Y018566D01*
X020385Y018566D01*
X020468Y018483D01*
X020468Y018399D01*
X020385Y018316D01*
X020218Y018316D01*
X020218Y018566D02*
X020134Y018650D01*
X020134Y018733D01*
X020218Y018816D01*
X020385Y018816D01*
X020468Y018733D01*
X020468Y018650D01*
X020385Y018566D01*
X019952Y018399D02*
X019869Y018316D01*
X019702Y018316D01*
X019619Y018399D01*
X019619Y018733D01*
X019702Y018816D01*
X019869Y018816D01*
X019952Y018733D01*
X016990Y017186D02*
X016990Y017019D01*
X016907Y016936D01*
X016823Y016936D01*
X016740Y017019D01*
X016740Y016853D01*
X016656Y016769D01*
X016740Y017019D02*
X016740Y017186D01*
X016474Y017353D02*
X016141Y017019D01*
X016141Y016936D01*
X015875Y016936D02*
X015875Y017436D01*
X015625Y017186D01*
X015959Y017186D01*
X016141Y017436D02*
X016474Y017436D01*
X016474Y017353D01*
X016491Y018126D02*
X016324Y018126D01*
X016241Y018209D01*
X016059Y018209D02*
X015975Y018126D01*
X015808Y018126D01*
X015725Y018209D01*
X015725Y018543D01*
X015808Y018626D01*
X015975Y018626D01*
X016059Y018543D01*
X016241Y018543D02*
X016241Y018460D01*
X016324Y018376D01*
X016574Y018376D01*
X016574Y018209D02*
X016574Y018543D01*
X016491Y018626D01*
X016324Y018626D01*
X016241Y018543D01*
X016574Y018209D02*
X016491Y018126D01*
X012895Y018096D02*
X012345Y018096D01*
X008845Y018096D02*
X008849Y018255D01*
X008861Y018415D01*
X008880Y018573D01*
X008907Y018730D01*
X008942Y018886D01*
X008985Y019039D01*
X009035Y019191D01*
X009092Y019340D01*
X009157Y019486D01*
X009229Y019628D01*
X009307Y019767D01*
X009393Y019902D01*
X009485Y020032D01*
X009583Y020158D01*
X009687Y020279D01*
X009797Y020394D01*
X009912Y020504D01*
X010033Y020608D01*
X010159Y020706D01*
X010289Y020798D01*
X010424Y020884D01*
X010563Y020962D01*
X010705Y021034D01*
X010851Y021099D01*
X011000Y021156D01*
X011152Y021206D01*
X011305Y021249D01*
X011461Y021284D01*
X011618Y021311D01*
X011776Y021330D01*
X011936Y021342D01*
X012095Y021346D01*
X012254Y021342D01*
X012414Y021330D01*
X012572Y021311D01*
X012729Y021284D01*
X012885Y021249D01*
X013038Y021206D01*
X013190Y021156D01*
X013339Y021099D01*
X013485Y021034D01*
X013627Y020962D01*
X013766Y020884D01*
X013901Y020798D01*
X014031Y020706D01*
X014157Y020608D01*
X014278Y020504D01*
X014393Y020394D01*
X014503Y020279D01*
X014607Y020158D01*
X014705Y020032D01*
X014797Y019902D01*
X014883Y019767D01*
X014961Y019628D01*
X015033Y019486D01*
X015098Y019340D01*
X015155Y019191D01*
X015205Y019039D01*
X015248Y018886D01*
X015283Y018730D01*
X015310Y018573D01*
X015329Y018415D01*
X015341Y018255D01*
X015345Y018096D01*
X015341Y017937D01*
X015329Y017777D01*
X015310Y017619D01*
X015283Y017462D01*
X015248Y017306D01*
X015205Y017153D01*
X015155Y017001D01*
X015098Y016852D01*
X015033Y016706D01*
X014961Y016564D01*
X014883Y016425D01*
X014797Y016290D01*
X014705Y016160D01*
X014607Y016034D01*
X014503Y015913D01*
X014393Y015798D01*
X014278Y015688D01*
X014157Y015584D01*
X014031Y015486D01*
X013901Y015394D01*
X013766Y015308D01*
X013627Y015230D01*
X013485Y015158D01*
X013339Y015093D01*
X013190Y015036D01*
X013038Y014986D01*
X012885Y014943D01*
X012729Y014908D01*
X012572Y014881D01*
X012414Y014862D01*
X012254Y014850D01*
X012095Y014846D01*
X011936Y014850D01*
X011776Y014862D01*
X011618Y014881D01*
X011461Y014908D01*
X011305Y014943D01*
X011152Y014986D01*
X011000Y015036D01*
X010851Y015093D01*
X010705Y015158D01*
X010563Y015230D01*
X010424Y015308D01*
X010289Y015394D01*
X010159Y015486D01*
X010033Y015584D01*
X009912Y015688D01*
X009797Y015798D01*
X009687Y015913D01*
X009583Y016034D01*
X009485Y016160D01*
X009393Y016290D01*
X009307Y016425D01*
X009229Y016564D01*
X009157Y016706D01*
X009092Y016852D01*
X009035Y017001D01*
X008985Y017153D01*
X008942Y017306D01*
X008907Y017462D01*
X008880Y017619D01*
X008861Y017777D01*
X008849Y017937D01*
X008845Y018096D01*
X009145Y018096D02*
X009745Y018096D01*
X009445Y017796D02*
X009445Y018396D01*
X011295Y018096D02*
X011745Y018096D01*
X011745Y017346D01*
X011995Y017346D01*
X011995Y018846D01*
X011745Y018846D01*
X011745Y018096D01*
X001745Y025596D02*
X001747Y025669D01*
X001753Y025742D01*
X001763Y025814D01*
X001777Y025886D01*
X001794Y025957D01*
X001816Y026027D01*
X001841Y026096D01*
X001870Y026163D01*
X001902Y026228D01*
X001938Y026292D01*
X001978Y026354D01*
X002020Y026413D01*
X002066Y026470D01*
X002115Y026524D01*
X002167Y026576D01*
X002221Y026625D01*
X002278Y026671D01*
X002337Y026713D01*
X002399Y026753D01*
X002463Y026789D01*
X002528Y026821D01*
X002595Y026850D01*
X002664Y026875D01*
X002734Y026897D01*
X002805Y026914D01*
X002877Y026928D01*
X002949Y026938D01*
X003022Y026944D01*
X003095Y026946D01*
X003168Y026944D01*
X003241Y026938D01*
X003313Y026928D01*
X003385Y026914D01*
X003456Y026897D01*
X003526Y026875D01*
X003595Y026850D01*
X003662Y026821D01*
X003727Y026789D01*
X003791Y026753D01*
X003853Y026713D01*
X003912Y026671D01*
X003969Y026625D01*
X004023Y026576D01*
X004075Y026524D01*
X004124Y026470D01*
X004170Y026413D01*
X004212Y026354D01*
X004252Y026292D01*
X004288Y026228D01*
X004320Y026163D01*
X004349Y026096D01*
X004374Y026027D01*
X004396Y025957D01*
X004413Y025886D01*
X004427Y025814D01*
X004437Y025742D01*
X004443Y025669D01*
X004445Y025596D01*
X004443Y025523D01*
X004437Y025450D01*
X004427Y025378D01*
X004413Y025306D01*
X004396Y025235D01*
X004374Y025165D01*
X004349Y025096D01*
X004320Y025029D01*
X004288Y024964D01*
X004252Y024900D01*
X004212Y024838D01*
X004170Y024779D01*
X004124Y024722D01*
X004075Y024668D01*
X004023Y024616D01*
X003969Y024567D01*
X003912Y024521D01*
X003853Y024479D01*
X003791Y024439D01*
X003727Y024403D01*
X003662Y024371D01*
X003595Y024342D01*
X003526Y024317D01*
X003456Y024295D01*
X003385Y024278D01*
X003313Y024264D01*
X003241Y024254D01*
X003168Y024248D01*
X003095Y024246D01*
X003022Y024248D01*
X002949Y024254D01*
X002877Y024264D01*
X002805Y024278D01*
X002734Y024295D01*
X002664Y024317D01*
X002595Y024342D01*
X002528Y024371D01*
X002463Y024403D01*
X002399Y024439D01*
X002337Y024479D01*
X002278Y024521D01*
X002221Y024567D01*
X002167Y024616D01*
X002115Y024668D01*
X002066Y024722D01*
X002020Y024779D01*
X001978Y024838D01*
X001938Y024900D01*
X001902Y024964D01*
X001870Y025029D01*
X001841Y025096D01*
X001816Y025165D01*
X001794Y025235D01*
X001777Y025306D01*
X001763Y025378D01*
X001753Y025450D01*
X001747Y025523D01*
X001745Y025596D01*
X023295Y018096D02*
X023845Y018096D01*
X020845Y018096D02*
X020849Y018255D01*
X020861Y018415D01*
X020880Y018573D01*
X020907Y018730D01*
X020942Y018886D01*
X020985Y019039D01*
X021035Y019191D01*
X021092Y019340D01*
X021157Y019486D01*
X021229Y019628D01*
X021307Y019767D01*
X021393Y019902D01*
X021485Y020032D01*
X021583Y020158D01*
X021687Y020279D01*
X021797Y020394D01*
X021912Y020504D01*
X022033Y020608D01*
X022159Y020706D01*
X022289Y020798D01*
X022424Y020884D01*
X022563Y020962D01*
X022705Y021034D01*
X022851Y021099D01*
X023000Y021156D01*
X023152Y021206D01*
X023305Y021249D01*
X023461Y021284D01*
X023618Y021311D01*
X023776Y021330D01*
X023936Y021342D01*
X024095Y021346D01*
X024254Y021342D01*
X024414Y021330D01*
X024572Y021311D01*
X024729Y021284D01*
X024885Y021249D01*
X025038Y021206D01*
X025190Y021156D01*
X025339Y021099D01*
X025485Y021034D01*
X025627Y020962D01*
X025766Y020884D01*
X025901Y020798D01*
X026031Y020706D01*
X026157Y020608D01*
X026278Y020504D01*
X026393Y020394D01*
X026503Y020279D01*
X026607Y020158D01*
X026705Y020032D01*
X026797Y019902D01*
X026883Y019767D01*
X026961Y019628D01*
X027033Y019486D01*
X027098Y019340D01*
X027155Y019191D01*
X027205Y019039D01*
X027248Y018886D01*
X027283Y018730D01*
X027310Y018573D01*
X027329Y018415D01*
X027341Y018255D01*
X027345Y018096D01*
X027341Y017937D01*
X027329Y017777D01*
X027310Y017619D01*
X027283Y017462D01*
X027248Y017306D01*
X027205Y017153D01*
X027155Y017001D01*
X027098Y016852D01*
X027033Y016706D01*
X026961Y016564D01*
X026883Y016425D01*
X026797Y016290D01*
X026705Y016160D01*
X026607Y016034D01*
X026503Y015913D01*
X026393Y015798D01*
X026278Y015688D01*
X026157Y015584D01*
X026031Y015486D01*
X025901Y015394D01*
X025766Y015308D01*
X025627Y015230D01*
X025485Y015158D01*
X025339Y015093D01*
X025190Y015036D01*
X025038Y014986D01*
X024885Y014943D01*
X024729Y014908D01*
X024572Y014881D01*
X024414Y014862D01*
X024254Y014850D01*
X024095Y014846D01*
X023936Y014850D01*
X023776Y014862D01*
X023618Y014881D01*
X023461Y014908D01*
X023305Y014943D01*
X023152Y014986D01*
X023000Y015036D01*
X022851Y015093D01*
X022705Y015158D01*
X022563Y015230D01*
X022424Y015308D01*
X022289Y015394D01*
X022159Y015486D01*
X022033Y015584D01*
X021912Y015688D01*
X021797Y015798D01*
X021687Y015913D01*
X021583Y016034D01*
X021485Y016160D01*
X021393Y016290D01*
X021307Y016425D01*
X021229Y016564D01*
X021157Y016706D01*
X021092Y016852D01*
X021035Y017001D01*
X020985Y017153D01*
X020942Y017306D01*
X020907Y017462D01*
X020880Y017619D01*
X020861Y017777D01*
X020849Y017937D01*
X020845Y018096D01*
X024195Y017346D02*
X024445Y017346D01*
X024445Y018096D01*
X024445Y018846D01*
X024195Y018846D01*
X024195Y017346D01*
X024445Y018096D02*
X024895Y018096D01*
X026445Y018096D02*
X027045Y018096D01*
X026745Y018396D02*
X026745Y017796D01*
X031245Y025596D02*
X031247Y025669D01*
X031253Y025742D01*
X031263Y025814D01*
X031277Y025886D01*
X031294Y025957D01*
X031316Y026027D01*
X031341Y026096D01*
X031370Y026163D01*
X031402Y026228D01*
X031438Y026292D01*
X031478Y026354D01*
X031520Y026413D01*
X031566Y026470D01*
X031615Y026524D01*
X031667Y026576D01*
X031721Y026625D01*
X031778Y026671D01*
X031837Y026713D01*
X031899Y026753D01*
X031963Y026789D01*
X032028Y026821D01*
X032095Y026850D01*
X032164Y026875D01*
X032234Y026897D01*
X032305Y026914D01*
X032377Y026928D01*
X032449Y026938D01*
X032522Y026944D01*
X032595Y026946D01*
X032668Y026944D01*
X032741Y026938D01*
X032813Y026928D01*
X032885Y026914D01*
X032956Y026897D01*
X033026Y026875D01*
X033095Y026850D01*
X033162Y026821D01*
X033227Y026789D01*
X033291Y026753D01*
X033353Y026713D01*
X033412Y026671D01*
X033469Y026625D01*
X033523Y026576D01*
X033575Y026524D01*
X033624Y026470D01*
X033670Y026413D01*
X033712Y026354D01*
X033752Y026292D01*
X033788Y026228D01*
X033820Y026163D01*
X033849Y026096D01*
X033874Y026027D01*
X033896Y025957D01*
X033913Y025886D01*
X033927Y025814D01*
X033937Y025742D01*
X033943Y025669D01*
X033945Y025596D01*
X033943Y025523D01*
X033937Y025450D01*
X033927Y025378D01*
X033913Y025306D01*
X033896Y025235D01*
X033874Y025165D01*
X033849Y025096D01*
X033820Y025029D01*
X033788Y024964D01*
X033752Y024900D01*
X033712Y024838D01*
X033670Y024779D01*
X033624Y024722D01*
X033575Y024668D01*
X033523Y024616D01*
X033469Y024567D01*
X033412Y024521D01*
X033353Y024479D01*
X033291Y024439D01*
X033227Y024403D01*
X033162Y024371D01*
X033095Y024342D01*
X033026Y024317D01*
X032956Y024295D01*
X032885Y024278D01*
X032813Y024264D01*
X032741Y024254D01*
X032668Y024248D01*
X032595Y024246D01*
X032522Y024248D01*
X032449Y024254D01*
X032377Y024264D01*
X032305Y024278D01*
X032234Y024295D01*
X032164Y024317D01*
X032095Y024342D01*
X032028Y024371D01*
X031963Y024403D01*
X031899Y024439D01*
X031837Y024479D01*
X031778Y024521D01*
X031721Y024567D01*
X031667Y024616D01*
X031615Y024668D01*
X031566Y024722D01*
X031520Y024779D01*
X031478Y024838D01*
X031438Y024900D01*
X031402Y024964D01*
X031370Y025029D01*
X031341Y025096D01*
X031316Y025165D01*
X031294Y025235D01*
X031277Y025306D01*
X031263Y025378D01*
X031253Y025450D01*
X031247Y025523D01*
X031245Y025596D01*
D11*
X027595Y014096D02*
X019095Y014096D01*
X019095Y009096D01*
X014095Y009096D01*
X017870Y008232D02*
X017870Y007621D01*
X017870Y007825D02*
X018175Y007825D01*
X018277Y007926D01*
X018277Y008130D01*
X018175Y008232D01*
X017870Y008232D01*
X018478Y008232D02*
X018478Y007723D01*
X018580Y007621D01*
X018783Y007621D01*
X018885Y007723D01*
X018885Y008232D01*
X019095Y008096D02*
X027595Y008096D01*
X027595Y014096D01*
X024248Y008232D02*
X024045Y008232D01*
X023943Y008130D01*
X023743Y008232D02*
X023336Y007621D01*
X022931Y007621D02*
X022931Y008232D01*
X022728Y008232D02*
X023135Y008232D01*
X023336Y008232D02*
X023743Y007621D01*
X023943Y007621D02*
X024350Y008028D01*
X024350Y008130D01*
X024248Y008232D01*
X024350Y007621D02*
X023943Y007621D01*
X022527Y007621D02*
X022324Y007825D01*
X022425Y007825D02*
X022120Y007825D01*
X022120Y007621D02*
X022120Y008232D01*
X022425Y008232D01*
X022527Y008130D01*
X022527Y007926D01*
X022425Y007825D01*
X021794Y007586D02*
X021387Y007586D01*
X021187Y007586D02*
X020780Y008197D01*
X020579Y008197D02*
X020172Y008197D01*
X020375Y008197D02*
X020375Y007586D01*
X020780Y007586D02*
X021187Y008197D01*
X021387Y007993D02*
X021591Y008197D01*
X021591Y007586D01*
X019971Y007586D02*
X019768Y007790D01*
X019869Y007790D02*
X019564Y007790D01*
X019564Y007586D02*
X019564Y008197D01*
X019869Y008197D01*
X019971Y008095D01*
X019971Y007891D01*
X019869Y007790D01*
X019095Y008096D02*
X019095Y009096D01*
X018595Y008096D02*
X010095Y008096D01*
X010095Y009096D01*
X005095Y009096D01*
X006595Y007596D02*
X006595Y002596D01*
X008095Y002596D01*
X009595Y002596D01*
X009595Y007596D01*
X008095Y007596D01*
X008095Y002596D01*
X007925Y002232D02*
X007722Y002232D01*
X007620Y002130D01*
X007620Y002028D01*
X007722Y001926D01*
X007925Y001926D01*
X008027Y001825D01*
X008027Y001723D01*
X007925Y001621D01*
X007722Y001621D01*
X007620Y001723D01*
X008027Y002130D02*
X007925Y002232D01*
X008228Y002028D02*
X008431Y002028D01*
X008330Y002130D02*
X008330Y001723D01*
X008431Y001621D01*
X008633Y001723D02*
X008735Y001825D01*
X009040Y001825D01*
X009040Y001926D02*
X009040Y001621D01*
X008735Y001621D01*
X008633Y001723D01*
X008735Y002028D02*
X008938Y002028D01*
X009040Y001926D01*
X009241Y001825D02*
X009444Y002028D01*
X009546Y002028D01*
X009747Y002028D02*
X009951Y002028D01*
X009849Y002130D02*
X009849Y001723D01*
X009951Y001621D01*
X009241Y001621D02*
X009241Y002028D01*
X008095Y007596D02*
X006595Y007596D01*
X010095Y009096D02*
X010095Y014096D01*
X018595Y014096D01*
X018595Y008096D01*
X016720Y005846D02*
X016720Y002346D01*
X018720Y002346D01*
X019720Y002346D01*
X019720Y002596D01*
X021470Y002596D01*
X021470Y005596D01*
X016970Y005596D01*
X016970Y002596D01*
X018720Y002596D01*
X018720Y002346D01*
X019720Y002346D02*
X021720Y002346D01*
X021720Y005846D01*
X016720Y005846D01*
X022595Y005846D02*
X022595Y002346D01*
X029595Y002346D01*
X029595Y005846D01*
X022595Y005846D01*
D12*
X021157Y002976D02*
X021037Y002976D01*
X020977Y002916D01*
X020849Y002916D02*
X020849Y002796D01*
X020789Y002736D01*
X020608Y002736D01*
X020608Y002616D02*
X020608Y002976D01*
X020789Y002976D01*
X020849Y002916D01*
X021157Y002976D02*
X021217Y002916D01*
X021217Y002856D01*
X020977Y002616D01*
X021217Y002616D01*
X020882Y002137D02*
X020882Y001616D01*
X020968Y001616D02*
X020795Y001616D01*
X020626Y001790D02*
X020279Y001790D01*
X020279Y001876D02*
X020366Y001963D01*
X020539Y001963D01*
X020626Y001876D01*
X020626Y001790D01*
X020539Y001616D02*
X020366Y001616D01*
X020279Y001703D01*
X020279Y001876D01*
X020109Y001616D02*
X019935Y001616D01*
X020022Y001616D02*
X020022Y002137D01*
X019935Y002137D01*
X019678Y002137D02*
X019678Y001616D01*
X019592Y001616D02*
X019765Y001616D01*
X019423Y001616D02*
X019423Y001876D01*
X019336Y001963D01*
X019163Y001963D01*
X019163Y001790D02*
X019423Y001790D01*
X019423Y001616D02*
X019163Y001616D01*
X019076Y001703D01*
X019163Y001790D01*
X018907Y001963D02*
X018820Y001963D01*
X018646Y001790D01*
X018478Y001790D02*
X018217Y001790D01*
X018131Y001703D01*
X018217Y001616D01*
X018478Y001616D01*
X018478Y001876D01*
X018391Y001963D01*
X018217Y001963D01*
X017962Y002050D02*
X017962Y001876D01*
X017875Y001790D01*
X017615Y001790D01*
X017615Y001616D02*
X017615Y002137D01*
X017875Y002137D01*
X017962Y002050D01*
X018646Y001963D02*
X018646Y001616D01*
X019592Y002137D02*
X019678Y002137D01*
X020240Y002676D02*
X020300Y002616D01*
X020360Y002616D01*
X020420Y002676D01*
X020420Y002976D01*
X020360Y002976D02*
X020480Y002976D01*
X020795Y002137D02*
X020882Y002137D01*
X024248Y002077D02*
X024248Y001556D01*
X024248Y001816D02*
X024595Y001816D01*
X024763Y001816D02*
X025110Y001816D01*
X025279Y001816D02*
X025539Y001816D01*
X025626Y001730D01*
X025626Y001643D01*
X025539Y001556D01*
X025279Y001556D01*
X025279Y002077D01*
X025539Y002077D01*
X025626Y001990D01*
X025626Y001903D01*
X025539Y001816D01*
X025795Y001730D02*
X025968Y001903D01*
X026055Y001903D01*
X026224Y001903D02*
X026311Y001903D01*
X026311Y001556D01*
X026224Y001556D02*
X026398Y001556D01*
X026568Y001643D02*
X026568Y001816D01*
X026655Y001903D01*
X026915Y001903D01*
X026915Y002077D02*
X026915Y001556D01*
X026655Y001556D01*
X026568Y001643D01*
X027084Y001643D02*
X027084Y001816D01*
X027171Y001903D01*
X027431Y001903D01*
X027431Y001469D01*
X027344Y001383D01*
X027257Y001383D01*
X027171Y001556D02*
X027084Y001643D01*
X027171Y001556D02*
X027431Y001556D01*
X027599Y001643D02*
X027599Y001816D01*
X027686Y001903D01*
X027860Y001903D01*
X027946Y001816D01*
X027946Y001730D01*
X027599Y001730D01*
X027599Y001643D02*
X027686Y001556D01*
X027860Y001556D01*
X027878Y002466D02*
X027878Y002826D01*
X028059Y002826D01*
X028119Y002766D01*
X028119Y002646D01*
X028059Y002586D01*
X027878Y002586D01*
X027690Y002526D02*
X027690Y002826D01*
X027630Y002826D02*
X027750Y002826D01*
X027690Y002526D02*
X027630Y002466D01*
X027570Y002466D01*
X027510Y002526D01*
X028247Y002466D02*
X028487Y002466D01*
X028367Y002466D02*
X028367Y002826D01*
X028247Y002706D01*
X026311Y002163D02*
X026311Y002077D01*
X025795Y001903D02*
X025795Y001556D01*
X024595Y001556D02*
X024595Y002077D01*
X016985Y006346D02*
X015205Y006346D01*
X013985Y006346D02*
X012205Y006346D01*
X012075Y006596D02*
X011615Y006596D01*
X011845Y006366D01*
X011845Y006673D01*
X011998Y006826D02*
X012075Y006826D01*
X011998Y006826D02*
X011691Y007133D01*
X011615Y007133D01*
X011615Y006826D01*
X011615Y007287D02*
X012075Y007287D01*
X011922Y007287D02*
X011768Y007517D01*
X011922Y007287D02*
X012075Y007517D01*
X012205Y007846D02*
X013985Y007846D01*
X015205Y007846D02*
X016985Y007846D01*
X010575Y007517D02*
X010575Y007364D01*
X010498Y007287D01*
X010191Y007594D01*
X010498Y007594D01*
X010575Y007517D01*
X010498Y007287D02*
X010191Y007287D01*
X010115Y007364D01*
X010115Y007517D01*
X010191Y007594D01*
X010575Y007133D02*
X010575Y006826D01*
X010575Y006673D02*
X010422Y006520D01*
X010422Y006596D02*
X010422Y006366D01*
X010575Y006366D02*
X010115Y006366D01*
X010115Y006596D01*
X010191Y006673D01*
X010345Y006673D01*
X010422Y006596D01*
X010268Y006826D02*
X010115Y006980D01*
X010575Y006980D01*
X008135Y009054D02*
X008135Y009314D01*
X008048Y009400D01*
X007962Y009400D01*
X007875Y009314D01*
X007875Y009054D01*
X007875Y009314D02*
X007788Y009400D01*
X007701Y009400D01*
X007615Y009314D01*
X007615Y009054D01*
X008135Y009054D01*
X008135Y009569D02*
X007788Y009569D01*
X007615Y009743D01*
X007788Y009916D01*
X008135Y009916D01*
X007875Y009916D02*
X007875Y009569D01*
X007615Y010085D02*
X007615Y010432D01*
X007615Y010258D02*
X008135Y010258D01*
X007875Y010600D02*
X007875Y010947D01*
X008048Y010774D02*
X007701Y010774D01*
X007815Y013116D02*
X007815Y013376D01*
X007902Y013463D01*
X007988Y013463D01*
X008075Y013376D01*
X008075Y013116D01*
X007555Y013116D01*
X007555Y013376D01*
X007641Y013463D01*
X007728Y013463D01*
X007815Y013376D01*
X007988Y013632D02*
X007555Y013632D01*
X007555Y013979D02*
X007988Y013979D01*
X008075Y013892D01*
X008075Y013718D01*
X007988Y013632D01*
X007988Y014147D02*
X007641Y014147D01*
X007555Y014234D01*
X007555Y014408D01*
X007641Y014494D01*
X007555Y014663D02*
X008075Y014663D01*
X007902Y014663D02*
X007555Y015010D01*
X007728Y015179D02*
X007555Y015352D01*
X008075Y015352D01*
X008075Y015179D02*
X008075Y015526D01*
X008075Y015010D02*
X007815Y014750D01*
X007988Y014494D02*
X008075Y014408D01*
X008075Y014234D01*
X007988Y014147D01*
X007902Y017116D02*
X007902Y017376D01*
X007815Y017463D01*
X007641Y017463D01*
X007555Y017376D01*
X007555Y017116D01*
X008075Y017116D01*
X007902Y017632D02*
X007555Y017632D01*
X007902Y017632D02*
X008075Y017805D01*
X007902Y017979D01*
X007555Y017979D01*
X007815Y018147D02*
X007815Y018494D01*
X007728Y018663D02*
X007555Y018836D01*
X008075Y018836D01*
X008075Y018663D02*
X008075Y019010D01*
X007988Y018321D02*
X007641Y018321D01*
X007555Y021616D02*
X007555Y021876D01*
X007641Y021963D01*
X007815Y021963D01*
X007902Y021876D01*
X007902Y021616D01*
X008075Y021616D02*
X007555Y021616D01*
X007555Y022132D02*
X007902Y022132D01*
X008075Y022305D01*
X007902Y022479D01*
X007555Y022479D01*
X007815Y022647D02*
X007815Y022994D01*
X007728Y023163D02*
X007555Y023336D01*
X008075Y023336D01*
X008075Y023163D02*
X008075Y023510D01*
X011115Y023173D02*
X011269Y023326D01*
X011269Y022866D01*
X011422Y022866D02*
X011115Y022866D01*
X011575Y022866D02*
X011575Y023173D01*
X011652Y023173D01*
X011729Y023096D01*
X011806Y023173D01*
X011882Y023096D01*
X011882Y022866D01*
X011729Y022866D02*
X011729Y023096D01*
X012036Y022943D02*
X012113Y022866D01*
X012266Y022866D01*
X012343Y022943D01*
X012343Y023250D01*
X012266Y023326D01*
X012113Y023326D01*
X012036Y023250D01*
X012036Y022943D01*
X012496Y022866D02*
X012496Y023326D01*
X012573Y023173D02*
X012726Y023173D01*
X012803Y023096D01*
X012803Y022866D01*
X012957Y022866D02*
X012957Y023173D01*
X013033Y023173D01*
X013110Y023096D01*
X013187Y023173D01*
X013264Y023096D01*
X013264Y022866D01*
X013110Y022866D02*
X013110Y023096D01*
X012573Y023173D02*
X012496Y023096D01*
X011882Y024866D02*
X011575Y024866D01*
X011422Y024866D02*
X011269Y025020D01*
X011345Y025020D02*
X011115Y025020D01*
X011115Y024866D02*
X011115Y025326D01*
X011345Y025326D01*
X011422Y025250D01*
X011422Y025096D01*
X011345Y025020D01*
X011575Y025173D02*
X011729Y025326D01*
X011729Y024866D01*
X011689Y026336D02*
X011689Y026596D01*
X011602Y026683D01*
X011515Y026596D01*
X011515Y026336D01*
X011342Y026336D02*
X011342Y026683D01*
X011428Y026683D01*
X011515Y026596D01*
X011857Y026423D02*
X011944Y026336D01*
X012117Y026336D01*
X012204Y026423D01*
X012204Y026770D01*
X012117Y026857D01*
X011944Y026857D01*
X011857Y026770D01*
X011857Y026423D01*
X012373Y026336D02*
X012373Y026857D01*
X012460Y026683D02*
X012633Y026683D01*
X012720Y026596D01*
X012720Y026336D01*
X012889Y026336D02*
X012889Y026683D01*
X012975Y026683D01*
X013062Y026596D01*
X013149Y026683D01*
X013235Y026596D01*
X013235Y026336D01*
X013062Y026336D02*
X013062Y026596D01*
X012460Y026683D02*
X012373Y026596D01*
X011173Y026336D02*
X010826Y026336D01*
X010999Y026336D02*
X010999Y026857D01*
X010826Y026683D01*
X009962Y026596D02*
X009962Y026423D01*
X009875Y026336D01*
X009702Y026336D01*
X009615Y026423D01*
X009615Y026596D02*
X009789Y026683D01*
X009875Y026683D01*
X009962Y026596D01*
X009962Y026857D02*
X009615Y026857D01*
X009615Y026596D01*
X009446Y026596D02*
X009360Y026510D01*
X009099Y026510D01*
X009273Y026510D02*
X009446Y026336D01*
X009446Y026596D02*
X009446Y026770D01*
X009360Y026857D01*
X009099Y026857D01*
X009099Y026336D01*
X016553Y021077D02*
X016553Y020556D01*
X016813Y020556D01*
X016899Y020643D01*
X016899Y020730D01*
X016813Y020816D01*
X016553Y020816D01*
X016813Y020816D02*
X016899Y020903D01*
X016899Y020990D01*
X016813Y021077D01*
X016553Y021077D01*
X017068Y020903D02*
X017242Y021077D01*
X017415Y020903D01*
X017415Y020556D01*
X017415Y020816D02*
X017068Y020816D01*
X017068Y020903D02*
X017068Y020556D01*
X017757Y020556D02*
X017757Y021077D01*
X017584Y021077D02*
X017931Y021077D01*
X018099Y020816D02*
X018446Y020816D01*
X022813Y024866D02*
X023120Y024866D01*
X022967Y024866D02*
X022967Y025326D01*
X022813Y025173D01*
X023274Y025173D02*
X023274Y024866D01*
X023427Y024866D02*
X023427Y025096D01*
X023504Y025173D01*
X023580Y025096D01*
X023580Y024866D01*
X023734Y024943D02*
X023811Y024866D01*
X023964Y024866D01*
X024041Y024943D01*
X024041Y025250D01*
X023964Y025326D01*
X023811Y025326D01*
X023734Y025250D01*
X023734Y024943D01*
X023427Y025096D02*
X023350Y025173D01*
X023274Y025173D01*
X024194Y025096D02*
X024271Y025173D01*
X024424Y025173D01*
X024501Y025096D01*
X024501Y024866D01*
X024655Y024866D02*
X024655Y025173D01*
X024731Y025173D01*
X024808Y025096D01*
X024885Y025173D01*
X024962Y025096D01*
X024962Y024866D01*
X024808Y024866D02*
X024808Y025096D01*
X024194Y025326D02*
X024194Y024866D01*
X024189Y026336D02*
X024189Y026596D01*
X024102Y026683D01*
X024015Y026596D01*
X024015Y026336D01*
X023842Y026336D02*
X023842Y026683D01*
X023928Y026683D01*
X024015Y026596D01*
X024357Y026423D02*
X024444Y026336D01*
X024617Y026336D01*
X024704Y026423D01*
X024704Y026770D01*
X024617Y026857D01*
X024444Y026857D01*
X024357Y026770D01*
X024357Y026423D01*
X024873Y026336D02*
X024873Y026857D01*
X024960Y026683D02*
X025133Y026683D01*
X025220Y026596D01*
X025220Y026336D01*
X025389Y026336D02*
X025389Y026683D01*
X025475Y026683D01*
X025562Y026596D01*
X025649Y026683D01*
X025735Y026596D01*
X025735Y026336D01*
X025562Y026336D02*
X025562Y026596D01*
X024960Y026683D02*
X024873Y026596D01*
X023673Y026336D02*
X023326Y026336D01*
X023499Y026336D02*
X023499Y026857D01*
X023326Y026683D01*
X022962Y026683D02*
X022962Y026770D01*
X022875Y026857D01*
X022702Y026857D01*
X022615Y026770D01*
X022446Y026770D02*
X022446Y026596D01*
X022360Y026510D01*
X022099Y026510D01*
X022273Y026510D02*
X022446Y026336D01*
X022615Y026423D02*
X022702Y026336D01*
X022875Y026336D01*
X022962Y026423D01*
X022962Y026510D01*
X022875Y026596D01*
X022789Y026596D01*
X022875Y026596D02*
X022962Y026683D01*
X022446Y026770D02*
X022360Y026857D01*
X022099Y026857D01*
X022099Y026336D01*
X024194Y023326D02*
X024424Y023326D01*
X024501Y023250D01*
X024501Y023096D01*
X024424Y023020D01*
X024194Y023020D01*
X024348Y023020D02*
X024501Y022866D01*
X024655Y022943D02*
X024731Y022866D01*
X024885Y022866D01*
X024962Y022943D01*
X024962Y023250D01*
X024885Y023326D01*
X024731Y023326D01*
X024655Y023250D01*
X024655Y023173D01*
X024731Y023096D01*
X024962Y023096D01*
X024194Y022866D02*
X024194Y023326D01*
X027555Y022923D02*
X027555Y022750D01*
X027641Y022663D01*
X027815Y022494D02*
X027815Y022147D01*
X027902Y021979D02*
X027555Y021979D01*
X027902Y021979D02*
X028075Y021805D01*
X027902Y021632D01*
X027555Y021632D01*
X027641Y021463D02*
X027815Y021463D01*
X027902Y021376D01*
X027902Y021116D01*
X028075Y021116D02*
X027555Y021116D01*
X027555Y021376D01*
X027641Y021463D01*
X028075Y022663D02*
X027728Y023010D01*
X027641Y023010D01*
X027555Y022923D01*
X028075Y023010D02*
X028075Y022663D01*
X028075Y019010D02*
X028075Y018663D01*
X027728Y019010D01*
X027641Y019010D01*
X027555Y018923D01*
X027555Y018750D01*
X027641Y018663D01*
X027815Y018494D02*
X027815Y018147D01*
X027902Y017979D02*
X027555Y017979D01*
X027902Y017979D02*
X028075Y017805D01*
X027902Y017632D01*
X027555Y017632D01*
X027641Y017463D02*
X027815Y017463D01*
X027902Y017376D01*
X027902Y017116D01*
X028075Y017116D02*
X027555Y017116D01*
X027555Y017376D01*
X027641Y017463D01*
X027641Y018321D02*
X027988Y018321D01*
X028075Y015026D02*
X028075Y014679D01*
X027728Y015026D01*
X027641Y015026D01*
X027555Y014939D01*
X027555Y014765D01*
X027641Y014679D01*
X027555Y014510D02*
X027902Y014163D01*
X027815Y014250D02*
X028075Y014510D01*
X028075Y014163D02*
X027555Y014163D01*
X027641Y013994D02*
X027555Y013908D01*
X027555Y013734D01*
X027641Y013647D01*
X027988Y013647D01*
X028075Y013734D01*
X028075Y013908D01*
X027988Y013994D01*
X027988Y013479D02*
X027555Y013479D01*
X027555Y013132D02*
X027988Y013132D01*
X028075Y013218D01*
X028075Y013392D01*
X027988Y013479D01*
X027988Y012963D02*
X028075Y012876D01*
X028075Y012616D01*
X027555Y012616D01*
X027555Y012876D01*
X027641Y012963D01*
X027728Y012963D01*
X027815Y012876D01*
X027815Y012616D01*
X027815Y012876D02*
X027902Y012963D01*
X027988Y012963D01*
X023079Y013901D02*
X023079Y013961D01*
X023079Y013901D02*
X022958Y013781D01*
X022958Y013601D01*
X022958Y013781D02*
X022838Y013901D01*
X022838Y013961D01*
X022710Y013961D02*
X022470Y013721D01*
X022530Y013781D02*
X022710Y013601D01*
X022470Y013601D02*
X022470Y013961D01*
X022342Y013961D02*
X022342Y013601D01*
X022102Y013961D01*
X022102Y013601D01*
X021974Y013661D02*
X021974Y013961D01*
X021733Y013961D02*
X021733Y013661D01*
X021793Y013601D01*
X021914Y013601D01*
X021974Y013661D01*
X021605Y013961D02*
X021365Y013961D01*
X021365Y013601D01*
X021365Y013781D02*
X021485Y013781D01*
X007689Y005576D02*
X007689Y005116D01*
X007536Y005116D02*
X007843Y005116D01*
X007536Y005423D02*
X007689Y005576D01*
X007382Y005576D02*
X007075Y005270D01*
X007152Y005346D02*
X007382Y005116D01*
X007075Y005116D02*
X007075Y005576D01*
X006922Y005576D02*
X006615Y005576D01*
X006615Y005116D01*
X006615Y005346D02*
X006769Y005346D01*
X011881Y002077D02*
X011881Y001556D01*
X012228Y001556D01*
X012396Y001643D02*
X012483Y001556D01*
X012656Y001556D01*
X012743Y001643D01*
X012912Y001556D02*
X013085Y001730D01*
X013259Y001556D01*
X013259Y002077D01*
X013428Y002077D02*
X013774Y002077D01*
X013774Y001990D01*
X013428Y001643D01*
X013428Y001556D01*
X012912Y001556D02*
X012912Y002077D01*
X012743Y001990D02*
X012656Y002077D01*
X012483Y002077D01*
X012396Y001990D01*
X012396Y001643D01*
X013943Y001643D02*
X013943Y001730D01*
X014030Y001816D01*
X014203Y001816D01*
X014290Y001730D01*
X014290Y001643D01*
X014203Y001556D01*
X014030Y001556D01*
X013943Y001643D01*
X014030Y001816D02*
X013943Y001903D01*
X013943Y001990D01*
X014030Y002077D01*
X014203Y002077D01*
X014290Y001990D01*
X014290Y001903D01*
X014203Y001816D01*
X014459Y001816D02*
X014806Y001816D01*
X014974Y001903D02*
X015148Y002077D01*
X015148Y001556D01*
X015321Y001556D02*
X014974Y001556D01*
D13*
X014474Y008111D02*
X014350Y008111D01*
X014289Y008173D01*
X014536Y008420D01*
X014536Y008173D01*
X014474Y008111D01*
X014289Y008173D02*
X014289Y008420D01*
X014350Y008481D01*
X014474Y008481D01*
X014536Y008420D01*
X014760Y008581D02*
X014760Y008211D01*
X014945Y008211D01*
X015007Y008273D01*
X015007Y008520D01*
X014945Y008581D01*
X014760Y008581D01*
X015128Y008520D02*
X015190Y008581D01*
X015314Y008581D01*
X015375Y008520D01*
X015375Y008458D01*
X015128Y008211D01*
X015375Y008211D01*
X015760Y008261D02*
X016007Y008508D01*
X016007Y008570D01*
X015945Y008631D01*
X015822Y008631D01*
X015760Y008570D01*
X015760Y008261D02*
X016007Y008261D01*
X016128Y008385D02*
X016252Y008261D01*
X016375Y008385D01*
X016375Y008631D01*
X016497Y008570D02*
X016558Y008631D01*
X016682Y008631D01*
X016744Y008570D01*
X016744Y008508D01*
X016497Y008261D01*
X016744Y008261D01*
X016128Y008385D02*
X016128Y008631D01*
X014167Y008420D02*
X014106Y008481D01*
X013982Y008481D01*
X013920Y008420D01*
X013799Y008420D02*
X013799Y008358D01*
X013737Y008296D01*
X013614Y008296D01*
X013552Y008358D01*
X013552Y008420D01*
X013614Y008481D01*
X013737Y008481D01*
X013799Y008420D01*
X013750Y008385D02*
X013750Y008631D01*
X013872Y008570D02*
X013933Y008631D01*
X014057Y008631D01*
X014119Y008570D01*
X014119Y008508D01*
X013872Y008261D01*
X014119Y008261D01*
X014167Y008358D02*
X014167Y008420D01*
X014167Y008358D02*
X013920Y008111D01*
X014167Y008111D01*
X013799Y008173D02*
X013737Y008111D01*
X013614Y008111D01*
X013552Y008173D01*
X013552Y008235D01*
X013614Y008296D01*
X013627Y008261D02*
X013750Y008385D01*
X013737Y008296D02*
X013799Y008235D01*
X013799Y008173D01*
X013627Y008261D02*
X013503Y008385D01*
X013503Y008631D01*
X013382Y008570D02*
X013320Y008631D01*
X013197Y008631D01*
X013135Y008570D01*
X013062Y008358D02*
X013000Y008358D01*
X012877Y008235D01*
X012875Y008211D02*
X012628Y008211D01*
X012570Y008111D02*
X012509Y008173D01*
X012509Y008296D01*
X012570Y008358D01*
X012694Y008358D01*
X012755Y008296D01*
X012755Y008235D01*
X012509Y008235D01*
X012507Y008273D02*
X012507Y008520D01*
X012445Y008581D01*
X012260Y008581D01*
X012260Y008211D01*
X012445Y008211D01*
X012507Y008273D01*
X012387Y008358D02*
X012202Y008358D01*
X012140Y008296D01*
X012140Y008173D01*
X012202Y008111D01*
X012387Y008111D01*
X012387Y008481D01*
X012628Y008458D02*
X012752Y008581D01*
X012752Y008211D01*
X012694Y008111D02*
X012570Y008111D01*
X012877Y008111D02*
X012877Y008358D01*
X013135Y008261D02*
X013382Y008508D01*
X013382Y008570D01*
X013382Y008261D02*
X013135Y008261D01*
X012019Y008296D02*
X011957Y008358D01*
X011834Y008358D01*
X011772Y008296D01*
X011772Y008173D01*
X011834Y008111D01*
X011957Y008111D01*
X012019Y008173D01*
X012019Y008296D01*
X011282Y008358D02*
X011282Y008420D01*
X011220Y008481D01*
X011097Y008481D01*
X011035Y008420D01*
X010914Y008358D02*
X010728Y008235D01*
X010914Y008111D01*
X011035Y008111D02*
X011282Y008358D01*
X011282Y008111D02*
X011035Y008111D01*
X010728Y008111D02*
X010728Y008481D01*
X010728Y008611D02*
X010728Y008673D01*
X010975Y008920D01*
X010975Y008981D01*
X010728Y008981D01*
X010607Y008920D02*
X010607Y008796D01*
X010545Y008735D01*
X010360Y008735D01*
X010484Y008735D02*
X010607Y008611D01*
X010545Y008481D02*
X010360Y008296D01*
X010607Y008296D01*
X010545Y008111D02*
X010545Y008481D01*
X010360Y008611D02*
X010360Y008981D01*
X010545Y008981D01*
X010607Y008920D01*
X009989Y008896D02*
X009989Y008773D01*
X009927Y008711D01*
X009803Y008711D01*
X009742Y008773D01*
X009620Y008773D02*
X009559Y008711D01*
X009435Y008711D01*
X009373Y008773D01*
X009373Y009020D01*
X009435Y009081D01*
X009559Y009081D01*
X009620Y009020D01*
X009742Y009081D02*
X009742Y008896D01*
X009865Y008958D01*
X009927Y008958D01*
X009989Y008896D01*
X009989Y009081D02*
X009742Y009081D01*
X009497Y008581D02*
X009497Y008211D01*
X009620Y008211D02*
X009373Y008211D01*
X009251Y008211D02*
X009190Y008211D01*
X009190Y008273D01*
X009251Y008273D01*
X009251Y008211D01*
X009128Y008088D01*
X009006Y008211D02*
X009006Y008396D01*
X008945Y008458D01*
X008760Y008458D01*
X008760Y008211D01*
X008638Y008273D02*
X008576Y008211D01*
X008453Y008211D01*
X008391Y008273D01*
X008638Y008520D01*
X008638Y008273D01*
X008638Y008520D02*
X008576Y008581D01*
X008453Y008581D01*
X008391Y008520D01*
X008391Y008273D01*
X008270Y008273D02*
X008208Y008211D01*
X008085Y008211D01*
X008023Y008273D01*
X008270Y008520D01*
X008270Y008273D01*
X008270Y008520D02*
X008208Y008581D01*
X008085Y008581D01*
X008023Y008520D01*
X008023Y008273D01*
X007902Y008211D02*
X007655Y008211D01*
X007778Y008211D02*
X007778Y008581D01*
X007655Y008458D01*
X009373Y008458D02*
X009497Y008581D01*
X009803Y008396D02*
X009803Y008273D01*
X009803Y008149D01*
X009742Y008088D01*
X009865Y008211D02*
X009927Y008211D01*
X009989Y008273D01*
X009989Y008396D01*
X009803Y008273D02*
X009865Y008211D01*
X008980Y011124D02*
X008610Y011124D01*
X008610Y011310D01*
X008671Y011371D01*
X008795Y011371D01*
X008857Y011310D01*
X008857Y011124D01*
X008857Y011248D02*
X008980Y011371D01*
X008918Y011493D02*
X008980Y011554D01*
X008980Y011678D01*
X008918Y011740D01*
X008857Y011740D01*
X008795Y011678D01*
X008795Y011493D01*
X008918Y011493D01*
X008795Y011493D02*
X008671Y011616D01*
X008610Y011740D01*
X008795Y011818D02*
X008795Y012064D01*
X008918Y012186D02*
X008980Y012186D01*
X008918Y012186D02*
X008671Y012433D01*
X008610Y012433D01*
X008610Y012186D01*
X008610Y012003D02*
X008795Y011818D01*
X008980Y012003D02*
X008610Y012003D01*
X008610Y012554D02*
X008980Y012554D01*
X008857Y012554D02*
X008733Y012739D01*
X008857Y012554D02*
X008980Y012739D01*
X009710Y012729D02*
X010080Y012729D01*
X010080Y012608D02*
X010080Y012361D01*
X010080Y012485D02*
X009710Y012485D01*
X009833Y012361D01*
X009957Y012729D02*
X009833Y012915D01*
X009957Y012729D02*
X010080Y012915D01*
X010080Y011976D02*
X010080Y011729D01*
X009833Y011976D01*
X009771Y011976D01*
X009710Y011915D01*
X009710Y011791D01*
X009771Y011729D01*
X009771Y011608D02*
X009895Y011608D01*
X009957Y011546D01*
X009957Y011361D01*
X010080Y011361D02*
X009710Y011361D01*
X009710Y011546D01*
X009771Y011608D01*
X009957Y011485D02*
X010080Y011608D01*
X019335Y011546D02*
X019335Y011361D01*
X019705Y011361D01*
X019582Y011361D02*
X019582Y011546D01*
X019520Y011608D01*
X019396Y011608D01*
X019335Y011546D01*
X019545Y011611D02*
X019545Y011981D01*
X019360Y011796D01*
X019607Y011796D01*
X019520Y011729D02*
X019520Y011976D01*
X019607Y012111D02*
X019484Y012235D01*
X019545Y012235D02*
X019360Y012235D01*
X019360Y012111D02*
X019360Y012481D01*
X019545Y012481D01*
X019607Y012420D01*
X019607Y012296D01*
X019545Y012235D01*
X019728Y012235D02*
X019790Y012296D01*
X019914Y012296D01*
X019975Y012235D01*
X019975Y012173D01*
X019914Y012111D01*
X019790Y012111D01*
X019728Y012173D01*
X019728Y012235D01*
X019790Y012296D02*
X019728Y012358D01*
X019728Y012420D01*
X019790Y012481D01*
X019914Y012481D01*
X019975Y012420D01*
X019975Y012358D01*
X019914Y012296D01*
X019975Y011981D02*
X019975Y011920D01*
X019728Y011673D01*
X019728Y011611D01*
X019705Y011608D02*
X019582Y011485D01*
X019520Y011729D02*
X019335Y011915D01*
X019705Y011915D01*
X019728Y011981D02*
X019975Y011981D01*
X020097Y011981D02*
X020097Y011611D01*
X020097Y011735D02*
X020282Y011858D01*
X020097Y011735D02*
X020282Y011611D01*
X019705Y009790D02*
X019582Y009604D01*
X019458Y009790D01*
X019335Y009604D02*
X019705Y009604D01*
X019705Y009483D02*
X019705Y009236D01*
X019705Y009360D02*
X019335Y009360D01*
X019458Y009236D01*
D14*
X023870Y018096D03*
X012320Y018096D03*
D15*
X002406Y003596D02*
X002408Y003648D01*
X002414Y003700D01*
X002424Y003751D01*
X002437Y003801D01*
X002455Y003851D01*
X002476Y003898D01*
X002500Y003944D01*
X002529Y003988D01*
X002560Y004030D01*
X002594Y004069D01*
X002631Y004106D01*
X002671Y004139D01*
X002714Y004170D01*
X002758Y004197D01*
X002804Y004221D01*
X002853Y004241D01*
X002902Y004257D01*
X002953Y004270D01*
X003004Y004279D01*
X003056Y004284D01*
X003108Y004285D01*
X003160Y004282D01*
X003212Y004275D01*
X003263Y004264D01*
X003313Y004250D01*
X003362Y004231D01*
X003409Y004209D01*
X003454Y004184D01*
X003498Y004155D01*
X003539Y004123D01*
X003578Y004088D01*
X003613Y004050D01*
X003646Y004009D01*
X003676Y003967D01*
X003702Y003922D01*
X003725Y003875D01*
X003744Y003826D01*
X003760Y003776D01*
X003772Y003726D01*
X003780Y003674D01*
X003784Y003622D01*
X003784Y003570D01*
X003780Y003518D01*
X003772Y003466D01*
X003760Y003416D01*
X003744Y003366D01*
X003725Y003317D01*
X003702Y003270D01*
X003676Y003225D01*
X003646Y003183D01*
X003613Y003142D01*
X003578Y003104D01*
X003539Y003069D01*
X003498Y003037D01*
X003454Y003008D01*
X003409Y002983D01*
X003362Y002961D01*
X003313Y002942D01*
X003263Y002928D01*
X003212Y002917D01*
X003160Y002910D01*
X003108Y002907D01*
X003056Y002908D01*
X003004Y002913D01*
X002953Y002922D01*
X002902Y002935D01*
X002853Y002951D01*
X002804Y002971D01*
X002758Y002995D01*
X002714Y003022D01*
X002671Y003053D01*
X002631Y003086D01*
X002594Y003123D01*
X002560Y003162D01*
X002529Y003204D01*
X002500Y003248D01*
X002476Y003294D01*
X002455Y003341D01*
X002437Y003391D01*
X002424Y003441D01*
X002414Y003492D01*
X002408Y003544D01*
X002406Y003596D01*
X011352Y002561D02*
X015838Y002561D01*
X015838Y005844D01*
X011352Y005844D01*
X011352Y002561D01*
X013171Y006702D02*
X013171Y007490D01*
X012768Y007096D01*
X013171Y006702D01*
X015768Y007096D02*
X016171Y006702D01*
X016171Y007490D01*
X015768Y007096D01*
X031906Y003596D02*
X031908Y003648D01*
X031914Y003700D01*
X031924Y003751D01*
X031937Y003801D01*
X031955Y003851D01*
X031976Y003898D01*
X032000Y003944D01*
X032029Y003988D01*
X032060Y004030D01*
X032094Y004069D01*
X032131Y004106D01*
X032171Y004139D01*
X032214Y004170D01*
X032258Y004197D01*
X032304Y004221D01*
X032353Y004241D01*
X032402Y004257D01*
X032453Y004270D01*
X032504Y004279D01*
X032556Y004284D01*
X032608Y004285D01*
X032660Y004282D01*
X032712Y004275D01*
X032763Y004264D01*
X032813Y004250D01*
X032862Y004231D01*
X032909Y004209D01*
X032954Y004184D01*
X032998Y004155D01*
X033039Y004123D01*
X033078Y004088D01*
X033113Y004050D01*
X033146Y004009D01*
X033176Y003967D01*
X033202Y003922D01*
X033225Y003875D01*
X033244Y003826D01*
X033260Y003776D01*
X033272Y003726D01*
X033280Y003674D01*
X033284Y003622D01*
X033284Y003570D01*
X033280Y003518D01*
X033272Y003466D01*
X033260Y003416D01*
X033244Y003366D01*
X033225Y003317D01*
X033202Y003270D01*
X033176Y003225D01*
X033146Y003183D01*
X033113Y003142D01*
X033078Y003104D01*
X033039Y003069D01*
X032998Y003037D01*
X032954Y003008D01*
X032909Y002983D01*
X032862Y002961D01*
X032813Y002942D01*
X032763Y002928D01*
X032712Y002917D01*
X032660Y002910D01*
X032608Y002907D01*
X032556Y002908D01*
X032504Y002913D01*
X032453Y002922D01*
X032402Y002935D01*
X032353Y002951D01*
X032304Y002971D01*
X032258Y002995D01*
X032214Y003022D01*
X032171Y003053D01*
X032131Y003086D01*
X032094Y003123D01*
X032060Y003162D01*
X032029Y003204D01*
X032000Y003248D01*
X031976Y003294D01*
X031955Y003341D01*
X031937Y003391D01*
X031924Y003441D01*
X031914Y003492D01*
X031908Y003544D01*
X031906Y003596D01*
X031906Y025596D02*
X031908Y025648D01*
X031914Y025700D01*
X031924Y025751D01*
X031937Y025801D01*
X031955Y025851D01*
X031976Y025898D01*
X032000Y025944D01*
X032029Y025988D01*
X032060Y026030D01*
X032094Y026069D01*
X032131Y026106D01*
X032171Y026139D01*
X032214Y026170D01*
X032258Y026197D01*
X032304Y026221D01*
X032353Y026241D01*
X032402Y026257D01*
X032453Y026270D01*
X032504Y026279D01*
X032556Y026284D01*
X032608Y026285D01*
X032660Y026282D01*
X032712Y026275D01*
X032763Y026264D01*
X032813Y026250D01*
X032862Y026231D01*
X032909Y026209D01*
X032954Y026184D01*
X032998Y026155D01*
X033039Y026123D01*
X033078Y026088D01*
X033113Y026050D01*
X033146Y026009D01*
X033176Y025967D01*
X033202Y025922D01*
X033225Y025875D01*
X033244Y025826D01*
X033260Y025776D01*
X033272Y025726D01*
X033280Y025674D01*
X033284Y025622D01*
X033284Y025570D01*
X033280Y025518D01*
X033272Y025466D01*
X033260Y025416D01*
X033244Y025366D01*
X033225Y025317D01*
X033202Y025270D01*
X033176Y025225D01*
X033146Y025183D01*
X033113Y025142D01*
X033078Y025104D01*
X033039Y025069D01*
X032998Y025037D01*
X032954Y025008D01*
X032909Y024983D01*
X032862Y024961D01*
X032813Y024942D01*
X032763Y024928D01*
X032712Y024917D01*
X032660Y024910D01*
X032608Y024907D01*
X032556Y024908D01*
X032504Y024913D01*
X032453Y024922D01*
X032402Y024935D01*
X032353Y024951D01*
X032304Y024971D01*
X032258Y024995D01*
X032214Y025022D01*
X032171Y025053D01*
X032131Y025086D01*
X032094Y025123D01*
X032060Y025162D01*
X032029Y025204D01*
X032000Y025248D01*
X031976Y025294D01*
X031955Y025341D01*
X031937Y025391D01*
X031924Y025441D01*
X031914Y025492D01*
X031908Y025544D01*
X031906Y025596D01*
X002406Y025596D02*
X002408Y025648D01*
X002414Y025700D01*
X002424Y025751D01*
X002437Y025801D01*
X002455Y025851D01*
X002476Y025898D01*
X002500Y025944D01*
X002529Y025988D01*
X002560Y026030D01*
X002594Y026069D01*
X002631Y026106D01*
X002671Y026139D01*
X002714Y026170D01*
X002758Y026197D01*
X002804Y026221D01*
X002853Y026241D01*
X002902Y026257D01*
X002953Y026270D01*
X003004Y026279D01*
X003056Y026284D01*
X003108Y026285D01*
X003160Y026282D01*
X003212Y026275D01*
X003263Y026264D01*
X003313Y026250D01*
X003362Y026231D01*
X003409Y026209D01*
X003454Y026184D01*
X003498Y026155D01*
X003539Y026123D01*
X003578Y026088D01*
X003613Y026050D01*
X003646Y026009D01*
X003676Y025967D01*
X003702Y025922D01*
X003725Y025875D01*
X003744Y025826D01*
X003760Y025776D01*
X003772Y025726D01*
X003780Y025674D01*
X003784Y025622D01*
X003784Y025570D01*
X003780Y025518D01*
X003772Y025466D01*
X003760Y025416D01*
X003744Y025366D01*
X003725Y025317D01*
X003702Y025270D01*
X003676Y025225D01*
X003646Y025183D01*
X003613Y025142D01*
X003578Y025104D01*
X003539Y025069D01*
X003498Y025037D01*
X003454Y025008D01*
X003409Y024983D01*
X003362Y024961D01*
X003313Y024942D01*
X003263Y024928D01*
X003212Y024917D01*
X003160Y024910D01*
X003108Y024907D01*
X003056Y024908D01*
X003004Y024913D01*
X002953Y024922D01*
X002902Y024935D01*
X002853Y024951D01*
X002804Y024971D01*
X002758Y024995D01*
X002714Y025022D01*
X002671Y025053D01*
X002631Y025086D01*
X002594Y025123D01*
X002560Y025162D01*
X002529Y025204D01*
X002500Y025248D01*
X002476Y025294D01*
X002455Y025341D01*
X002437Y025391D01*
X002424Y025441D01*
X002414Y025492D01*
X002408Y025544D01*
X002406Y025596D01*
D16*
X011209Y025622D02*
X012981Y025622D01*
X012981Y022570D02*
X011209Y022570D01*
X023209Y022570D02*
X024981Y022570D01*
X024981Y025622D02*
X023209Y025622D01*
D17*
X015595Y005596D03*
M02*
